%FSTAX24Y24*%
%MOIN*%
%SFA1B1*%

%IPPOS*%
%ADD10C,0.010000*%
%ADD23C,0.039370*%
%ADD25R,0.078740X0.078740*%
%ADD26R,0.078740X0.078740*%
%ADD27R,0.118110X0.118110*%
%ADD28O,0.039370X0.078740*%
%ADD29O,0.039370X0.078740*%
%ADD30C,0.196850*%
%ADD31C,0.060000*%
%ADD32C,0.078740*%
%ADD33C,0.118110*%
%ADD34R,0.338580X0.602360*%
%ADD35R,0.881890X0.230080*%
%ADD36R,1.255900X0.220080*%
%LNpcb1-1*%
%LPD*%
G36*
X017677Y015317D02*
X017015D01*
X0169Y015306*
X016788Y015272*
X016686Y015217*
X016596Y015144*
X014984Y013532*
X014868Y013647*
X014778Y013721*
X014675Y013776*
X014564Y01381*
X014448Y013821*
X011614*
Y013821*
X011498Y01381*
X011387Y013776*
X011284Y013721*
X011194Y013647*
X010503Y012956*
X009645*
Y011381*
X01122*
Y011995*
X011764Y012539*
X011811Y01252*
Y011381*
X013041*
X013061Y011371*
X013641Y010791*
Y005982*
X013289Y00563*
X013178*
Y006557*
X013234Y00658*
X013296Y006628*
X013344Y00669*
X013374Y006762*
X013384Y00684*
Y007233*
X013374Y007311*
X013344Y007383*
X013296Y007445*
X013234Y007493*
X013162Y007523*
X013095Y007531*
X013078Y007563*
X013004Y007653*
X012914Y007727*
X012812Y007782*
X0127Y007815*
X012585Y007827*
X012469Y007815*
X012358Y007782*
X012335Y007769*
X012312Y007782*
X0122Y007815*
X012139Y007821*
X01122Y00874*
Y009956*
X01016*
Y010511*
X010148Y010627*
X010115Y010738*
X01006Y010841*
X009986Y010931*
X008923Y011994*
X008833Y012068*
X008731Y012123*
X008619Y012156*
X008586Y01216*
Y012362*
X007011*
Y01201*
X006935Y011947*
X00484Y009852*
X004766Y009762*
X004711Y00966*
X004704Y009637*
X004472*
Y008412*
X003661*
Y008606*
X003367*
Y008671*
X002874*
X00238*
Y008606*
X002086*
Y007606*
Y007231*
X002044Y00718*
X001989Y007077*
X001956Y006966*
X001944Y00685*
X001956Y006734*
X001989Y006623*
X002044Y00652*
X002086Y006469*
Y006031*
X003661*
Y006257*
X003934*
Y004488*
X003945Y004372*
X003979Y004261*
X004034Y004158*
X004108Y004068*
X005997Y002178*
X006087Y002105*
X00619Y00205*
X006301Y002016*
X006417Y002005*
X008346*
X008462Y002016*
X008573Y00205*
X008676Y002105*
X008766Y002178*
X009986Y003399*
X01006Y003489*
X010115Y003591*
X010136Y003662*
X015903*
X016019Y003673*
X016131Y003707*
X016233Y003762*
X016323Y003836*
X016386Y003899*
X017122*
Y005456*
X017631Y005965*
X017677Y005945*
Y0*
X0*
Y015705*
X013346*
X017677*
Y015317*
G37*
G36*
X008973Y010266D02*
Y004607D01*
X008955Y004585*
X0089Y004483*
X008866Y004371*
X008855Y004255*
X008866Y00414*
X0089Y004028*
X008913Y004004*
X0081Y003191*
X006663*
X005121Y004734*
Y006063*
X006047*
Y006356*
X006112*
Y00685*
X006259*
Y006998*
X006753*
Y007063*
X007047*
X007091Y007049*
Y005824*
X006897*
Y004249*
X008472*
Y005824*
X008278*
Y007377*
X008267Y007493*
X008233Y007605*
X008178Y007707*
X008104Y007797*
X007632Y00827*
X007542Y008343*
X007439Y008398*
X007328Y008432*
X007212Y008443*
X007047*
Y008637*
X006753*
Y008702*
X006259*
Y00885*
X006112*
Y009344*
X006078*
X00606Y009394*
X007453Y010787*
X008452*
X008973Y010266*
G37*
%LNpcb1-2*%
%LPC*%
G36*
X001407Y015642D02*
Y014714D01*
X002335*
X002334Y014737*
X002294Y014903*
X002228Y01506*
X002139Y015206*
X002028Y015336*
X001899Y015446*
X001753Y015536*
X001595Y015601*
X00143Y015641*
X001407Y015642*
G37*
G36*
X001112D02*
X001089Y015641D01*
X000923Y015601*
X000766Y015536*
X00062Y015446*
X00049Y015336*
X000379Y015206*
X00029Y01506*
X000225Y014903*
X000185Y014737*
X000183Y014714*
X001112*
Y015642*
G37*
G36*
X002335Y014419D02*
X001407D01*
Y01349*
X00143Y013492*
X001595Y013532*
X001753Y013597*
X001899Y013687*
X002028Y013797*
X002139Y013927*
X002228Y014073*
X002294Y01423*
X002334Y014396*
X002335Y014419*
G37*
G36*
X001112D02*
X000183D01*
X000185Y014396*
X000225Y01423*
X00029Y014073*
X000379Y013927*
X00049Y013797*
X00062Y013687*
X000766Y013597*
X000923Y013532*
X001089Y013492*
X001112Y01349*
Y014419*
G37*
G36*
X003446Y012135D02*
X0031D01*
Y011789*
X003446*
Y012135*
G37*
G36*
X002805D02*
X002459D01*
Y011789*
X002805*
Y012135*
G37*
G36*
X005586Y012362D02*
X004011D01*
Y011626*
X003786Y011401*
X00374Y01142*
Y011429*
X003446*
Y011494*
X002459*
Y011429*
X002165*
Y009854*
X00374*
Y010048*
X003866*
X003981Y010059*
X004093Y010093*
X004195Y010148*
X004285Y010222*
X004851Y010787*
X005586*
Y012362*
G37*
G36*
X013092Y009663D02*
X012746D01*
Y009316*
X013092*
Y009663*
G37*
G36*
X01245D02*
X012104D01*
Y009316*
X01245*
Y009663*
G37*
G36*
X003367Y009312D02*
X003021D01*
Y008966*
X003367*
Y009312*
G37*
G36*
X002726D02*
X00238D01*
Y008966*
X002726*
Y009312*
G37*
G36*
X013092Y009021D02*
X012746D01*
Y008675*
X013092*
Y009021*
G37*
G36*
X01245D02*
X012104D01*
Y008675*
X01245*
Y009021*
G37*
G36*
X007431Y001749D02*
Y001525D01*
X007655*
X007632Y001579*
X007568Y001663*
X007485Y001727*
X007431Y001749*
G37*
G36*
X007135D02*
X007081Y001727D01*
X006998Y001663*
X006934Y001579*
X006911Y001525*
X007135*
Y001749*
G37*
G36*
X001407Y002335D02*
Y001407D01*
X002335*
X002334Y00143*
X002294Y001595*
X002228Y001753*
X002139Y001899*
X002028Y002028*
X001899Y002139*
X001753Y002228*
X001595Y002294*
X00143Y002334*
X001407Y002335*
G37*
G36*
X001112D02*
X001089Y002334D01*
X000923Y002294*
X000766Y002228*
X00062Y002139*
X00049Y002028*
X000379Y001899*
X00029Y001753*
X000225Y001595*
X000185Y00143*
X000183Y001407*
X001112*
Y002335*
G37*
G36*
X007655Y00123D02*
X007431D01*
Y001006*
X007485Y001028*
X007568Y001092*
X007632Y001176*
X007655Y00123*
G37*
G36*
X007135D02*
X006911D01*
X006934Y001176*
X006998Y001092*
X007081Y001028*
X007135Y001006*
Y00123*
G37*
G36*
X002335Y001112D02*
X001407D01*
Y000183*
X00143Y000185*
X001595Y000225*
X001753Y00029*
X001899Y000379*
X002028Y00049*
X002139Y00062*
X002228Y000766*
X002294Y000923*
X002334Y001089*
X002335Y001112*
G37*
G36*
X001112D02*
X000183D01*
X000185Y001089*
X000225Y000923*
X00029Y000766*
X000379Y00062*
X00049Y00049*
X00062Y000379*
X000766Y00029*
X000923Y000225*
X001089Y000185*
X001112Y000183*
Y001112*
G37*
G36*
X006753Y009344D02*
X006407D01*
Y008998*
X006753*
Y009344*
G37*
G36*
Y006702D02*
X006407D01*
Y006356*
X006753*
Y006702*
G37*
G36*
X007431Y004112D02*
Y003887D01*
X007655*
X007632Y003941*
X007568Y004025*
X007485Y004089*
X007431Y004112*
G37*
G36*
X007135D02*
X007081Y004089D01*
X006998Y004025*
X006934Y003941*
X006911Y003887*
X007135*
Y004112*
G37*
G36*
X007655Y003592D02*
X007431D01*
Y003368*
X007485Y00339*
X007568Y003454*
X007632Y003538*
X007655Y003592*
G37*
G36*
X007135D02*
X006911D01*
X006934Y003538*
X006998Y003454*
X007081Y00339*
X007135Y003368*
Y003592*
G37*
%LNpcb1-3*%
%LPD*%
G54D10*
X026417Y006905D02*
X026612D01*
G54D23*
X009566Y004255D02*
Y010511D01*
Y003818D02*
Y004255D01*
X015903*
X009448D02*
X009566D01*
X002538Y00685D02*
X002905D01*
X010433Y012047D02*
X011614Y013228D01*
X014235Y005737D02*
Y011037D01*
X013535Y005037D02*
X014235Y005737D01*
X013385Y011887D02*
X014235Y011037D01*
X015903Y004255D02*
X016335Y004687D01*
X003866Y010641D02*
X004799Y011574D01*
X002952Y010641D02*
X003866D01*
X016335Y004687D02*
Y005508D01*
X017322Y006496*
Y007992*
X018188Y008858*
X018779*
X010433Y008689D02*
X012085Y007037D01*
X010433Y008689D02*
Y009037D01*
X012598Y012169D02*
X013066D01*
X013349Y011887*
X013385*
X010685Y005037D02*
X013535D01*
X012585Y005087D02*
Y007037D01*
X032762Y005355D02*
Y005455D01*
X0276Y013855D02*
X027612Y013843D01*
X015Y012708D02*
X017015Y014724D01*
X018779*
X014448Y013228D02*
X01498Y012696D01*
X011614Y013228D02*
X014448D01*
X015Y008687D02*
Y008708D01*
X012598Y009169D02*
X013085Y008682D01*
Y007037D02*
Y008682D01*
X007685Y005037D02*
Y007377D01*
X007212Y00785D02*
X007685Y007377D01*
X006259Y00785D02*
X007212D01*
X002874Y007818D02*
X004665D01*
X004697Y00785*
X005259*
X006259*
X002874Y006818D02*
X002905Y00685D01*
X015Y008687D02*
X016335D01*
X005259Y00885D02*
Y009433D01*
X007354Y011528*
X004527Y004488D02*
Y00685D01*
Y004488D02*
X006417Y002598D01*
X002905Y00685D02*
X004527D01*
X005259*
X007354Y011528D02*
X007733D01*
X006417Y002598D02*
X008346D01*
X009566Y003818*
X007799Y011574D02*
X008503D01*
X009566Y010511*
G54D25*
X018937Y014881D03*
X024055D03*
Y008976D03*
X018937D03*
X010685Y005037D03*
X007685D03*
X007799Y011574D03*
X004799D03*
X002952Y011641D03*
Y010641D03*
G54D26*
X026417Y007212D03*
Y011212D03*
X002874Y006818D03*
Y007818D03*
Y008818D03*
X012598Y009169D03*
Y012169D03*
X010433Y009169D03*
Y012169D03*
X005259Y00885D03*
X006259D03*
X005259Y00785D03*
X006259D03*
X005259Y00685D03*
X006259D03*
X028464Y004582D03*
Y003582D03*
Y002582D03*
X029645Y007122D03*
Y010122D03*
X015Y012708D03*
Y008708D03*
X016335Y004687D03*
Y008687D03*
X039342Y004855D03*
X038342D03*
X039342Y005855D03*
X038342D03*
X039342Y006855D03*
X038342D03*
X039342Y007855D03*
X038342D03*
X039342Y008855D03*
X038342D03*
X039342Y009855D03*
X038342D03*
X039342Y010855D03*
X038342D03*
G54D27*
X027796Y013855D03*
X036064D03*
X043346Y007795D03*
Y009881D03*
Y005511D03*
G54D28*
X013085Y007037D03*
X012085D03*
G54D29*
X012585Y007037D03*
G54D30*
X021929Y003582D03*
X044291Y001417D03*
Y014448D03*
X001259Y001259D03*
Y014566D03*
G54D31*
X007283Y00374D03*
Y001378D03*
G54D32*
X024055Y013456D02*
X026535Y010976D01*
X024055Y013456D02*
Y014488D01*
X027612Y013843D02*
X027849D01*
X02937Y009964D02*
X029763Y010358D01*
X026456Y002622D02*
X029173D01*
X027519Y003622D02*
X031028D01*
X039184Y004855D02*
Y006855D01*
X038184Y005855D02*
Y006855D01*
X030157Y003858D02*
X032441Y006141D01*
X038224Y006855D02*
X039184D01*
X038184D02*
X038224D01*
Y004855D02*
X039184D01*
X038184D02*
X038224D01*
X037784Y005455D02*
X038184Y005855D01*
X036384Y005455D02*
X037784D01*
X031028Y003622D02*
X032762Y005355D01*
X038224Y010855D02*
X039224D01*
Y009855D02*
Y010855D01*
Y008855D02*
Y009855D01*
X038224D02*
X039224D01*
X038224Y008855D02*
X039224D01*
X026417Y005315D02*
X027086Y004645D01*
X026417Y006905D02*
Y006976D01*
Y005315D02*
Y006905D01*
X027086Y004645D02*
X029212D01*
X026612Y006905D02*
X029527D01*
G54D33*
X024606Y003818D02*
Y008976D01*
X028381*
X024606Y003818D02*
X025803Y002622D01*
X026456*
X028381Y008976D02*
X02937Y009964D01*
X036103Y009645D02*
Y013855D01*
X027849Y013843D02*
X029763Y011929D01*
Y010358D02*
Y011929D01*
G54D34*
X021653Y003484D03*
G54D35*
X040472Y010205D03*
G54D36*
X038602Y005513D03*
M02*