%FSTAX24Y24*%
%MOIN*%
%SFA1B1*%

%IPPOS*%
%ADD25R,0.078740X0.078740*%
%ADD26R,0.078740X0.078740*%
%ADD27R,0.118110X0.118110*%
%ADD28O,0.039370X0.078740*%
%ADD29O,0.039370X0.078740*%
%ADD30C,0.196850*%
%ADD31C,0.060000*%
%LNpcb1-1*%
%LPD*%
G54D25*
X018937Y014881D03*
X024055D03*
Y008976D03*
X018937D03*
X010685Y005037D03*
X007685D03*
X007799Y011574D03*
X004799D03*
X002952Y011641D03*
Y010641D03*
G54D26*
X026417Y007212D03*
Y011212D03*
X002874Y006818D03*
Y007818D03*
Y008818D03*
X012598Y009169D03*
Y012169D03*
X010433Y009169D03*
Y012169D03*
X005259Y00885D03*
X006259D03*
X005259Y00785D03*
X006259D03*
X005259Y00685D03*
X006259D03*
X028464Y004582D03*
Y003582D03*
Y002582D03*
X029645Y007122D03*
Y010122D03*
X015Y012708D03*
Y008708D03*
X016335Y004687D03*
Y008687D03*
X039342Y004855D03*
X038342D03*
X039342Y005855D03*
X038342D03*
X039342Y006855D03*
X038342D03*
X039342Y007855D03*
X038342D03*
X039342Y008855D03*
X038342D03*
X039342Y009855D03*
X038342D03*
X039342Y010855D03*
X038342D03*
G54D27*
X027796Y013855D03*
X036064D03*
X043346Y007795D03*
Y009881D03*
Y005511D03*
G54D28*
X013085Y007037D03*
X012085D03*
G54D29*
X012585Y007037D03*
G54D30*
X021929Y003582D03*
X044291Y001417D03*
Y014448D03*
X001259Y001259D03*
Y014566D03*
G54D31*
X007283Y00374D03*
Y001378D03*
M02*