%FSTAX24Y24*%
%MOIN*%
%SFA1B1*%

%IPPOS*%
%ADD38C,0.002000*%
%ADD39C,0.002670*%
%LNpcb1-1*%
%LPD*%
G54D38*
X018857Y014801D02*
Y014961D01*
X019017*
Y014801*
X018857*
X023975D02*
Y014961D01*
X024135*
Y014801*
X023975*
Y008896D02*
Y009056D01*
X024135*
Y008896*
X023975*
X018857D02*
Y009056D01*
X019017*
Y008896*
X018857*
X027796Y013775D02*
X027716Y013935D01*
X027876*
X027796Y013775*
X036064D02*
X035984Y013935D01*
X036144*
X036064Y013775*
X013085Y006957D02*
X013125Y006997D01*
X013165*
X013125Y007037*
X013165Y007077*
X013125*
X013085Y007117*
X013045Y007077*
X013005*
X013045Y007037*
X013005Y006997*
X013045*
X013085Y006957*
X012585D02*
X012625Y006997D01*
X012665*
X012625Y007037*
X012665Y007077*
X012625*
X012585Y007117*
X012545Y007077*
X012505*
X012545Y007037*
X012505Y006997*
X012545*
X012585Y006957*
X012085D02*
X012125Y006997D01*
X012165*
X012125Y007037*
X012165Y007077*
X012125*
X012085Y007117*
X012045Y007077*
X012005*
X012045Y007037*
X012005Y006997*
X012045*
X012085Y006957*
X021849Y003502D02*
X021889Y003582D01*
X021849Y003662*
X021929Y003622*
X022009Y003662*
X021969Y003582*
X022009Y003502*
X021929Y003542*
X021849Y003502*
X044211Y001337D02*
X044251Y001417D01*
X044211Y001497*
X044291Y001457*
X044371Y001497*
X044331Y001417*
X044371Y001337*
X044291Y001377*
X044211Y001337*
Y014368D02*
X044251Y014448D01*
X044211Y014528*
X044291Y014488*
X044371Y014528*
X044331Y014448*
X044371Y014368*
X044291Y014408*
X044211Y014368*
X001179Y001179D02*
X001219Y001259D01*
X001179Y001339*
X001259Y001299*
X001339Y001339*
X001299Y001259*
X001339Y001179*
X001259Y001219*
X001179Y001179*
Y014486D02*
X001219Y014566D01*
X001179Y014646*
X001259Y014606*
X001339Y014646*
X001299Y014566*
X001339Y014486*
X001259Y014526*
X001179Y014486*
X007243Y0037D02*
Y00366D01*
X007323*
Y0037*
X007363*
Y00378*
X007323*
Y00382*
X007243*
Y00378*
X007203*
Y0037*
X007243*
Y001337D02*
Y001297D01*
X007323*
Y001337*
X007363*
Y001417*
X007323*
Y001458*
X007243*
Y001417*
X007203*
Y001337*
X007243*
X043266Y007715D02*
X043306D01*
X043346Y007755*
X043386Y007715*
X043426*
Y007755*
X043386Y007795*
X043426Y007835*
Y007875*
X043386*
X043346Y007835*
X043306Y007875*
X043266*
Y007835*
X043306Y007795*
X043266Y007755*
Y007715*
Y009801D02*
X043306D01*
X043346Y009841*
X043386Y009801*
X043426*
Y009841*
X043386Y009881*
X043426Y009921*
Y009961*
X043386*
X043346Y009921*
X043306Y009961*
X043266*
Y009921*
X043306Y009881*
X043266Y009841*
Y009801*
Y005431D02*
X043306D01*
X043346Y005471*
X043386Y005431*
X043426*
Y005471*
X043386Y005511*
X043426Y005551*
Y005591*
X043386*
X043346Y005551*
X043306Y005591*
X043266*
Y005551*
X043306Y005511*
X043266Y005471*
Y005431*
G54D39*
X026497Y007212D02*
D01*
X026497Y007218*
X026496Y007223*
X026495Y007229*
X026494Y007234*
X026492Y007239*
X02649Y007245*
X026487Y00725*
X026485Y007254*
X026482Y007259*
X026478Y007264*
X026474Y007268*
X02647Y007272*
X026466Y007275*
X026462Y007278*
X026457Y007281*
X026452Y007284*
X026447Y007286*
X026442Y007288*
X026436Y00729*
X026431Y007291*
X026425Y007292*
X02642Y007292*
X026414*
X026408Y007292*
X026403Y007291*
X026397Y00729*
X026392Y007288*
X026387Y007286*
X026382Y007284*
X026377Y007281*
X026372Y007278*
X026368Y007275*
X026363Y007272*
X026359Y007268*
X026356Y007264*
X026352Y007259*
X026349Y007254*
X026346Y00725*
X026344Y007245*
X026342Y007239*
X02634Y007234*
X026339Y007229*
X026338Y007223*
X026337Y007218*
X026337Y007212*
X026337Y007207*
X026338Y007201*
X026339Y007195*
X02634Y00719*
X026342Y007185*
X026344Y00718*
X026346Y007175*
X026349Y00717*
X026352Y007165*
X026356Y007161*
X026359Y007157*
X026363Y007153*
X026368Y007149*
X026372Y007146*
X026377Y007143*
X026382Y00714*
X026387Y007138*
X026392Y007136*
X026397Y007134*
X026403Y007133*
X026408Y007133*
X026414Y007132*
X02642*
X026425Y007133*
X026431Y007133*
X026436Y007134*
X026442Y007136*
X026447Y007138*
X026452Y00714*
X026457Y007143*
X026462Y007146*
X026466Y007149*
X02647Y007153*
X026474Y007157*
X026478Y007161*
X026482Y007165*
X026485Y00717*
X026487Y007175*
X02649Y00718*
X026492Y007185*
X026494Y00719*
X026495Y007195*
X026496Y007201*
X026497Y007207*
X026497Y007212*
Y011212D02*
D01*
X026497Y011218*
X026496Y011223*
X026495Y011229*
X026494Y011234*
X026492Y011239*
X02649Y011245*
X026487Y01125*
X026485Y011254*
X026482Y011259*
X026478Y011264*
X026474Y011268*
X02647Y011272*
X026466Y011275*
X026462Y011278*
X026457Y011281*
X026452Y011284*
X026447Y011286*
X026442Y011288*
X026436Y01129*
X026431Y011291*
X026425Y011292*
X02642Y011292*
X026414*
X026408Y011292*
X026403Y011291*
X026397Y01129*
X026392Y011288*
X026387Y011286*
X026382Y011284*
X026377Y011281*
X026372Y011278*
X026368Y011275*
X026363Y011272*
X026359Y011268*
X026356Y011264*
X026352Y011259*
X026349Y011254*
X026346Y01125*
X026344Y011245*
X026342Y011239*
X02634Y011234*
X026339Y011229*
X026338Y011223*
X026337Y011218*
X026337Y011212*
X026337Y011207*
X026338Y011201*
X026339Y011195*
X02634Y01119*
X026342Y011185*
X026344Y01118*
X026346Y011175*
X026349Y01117*
X026352Y011165*
X026356Y011161*
X026359Y011157*
X026363Y011153*
X026368Y011149*
X026372Y011146*
X026377Y011143*
X026382Y01114*
X026387Y011138*
X026392Y011136*
X026397Y011134*
X026403Y011133*
X026408Y011133*
X026414Y011132*
X02642*
X026425Y011133*
X026431Y011133*
X026436Y011134*
X026442Y011136*
X026447Y011138*
X026452Y01114*
X026457Y011143*
X026462Y011146*
X026466Y011149*
X02647Y011153*
X026474Y011157*
X026478Y011161*
X026482Y011165*
X026485Y01117*
X026487Y011175*
X02649Y01118*
X026492Y011185*
X026494Y01119*
X026495Y011195*
X026496Y011201*
X026497Y011207*
X026497Y011212*
X002954Y006818D02*
D01*
X002953Y006824*
X002953Y00683*
X002952Y006835*
X00295Y00684*
X002949Y006846*
X002947Y006851*
X002944Y006856*
X002941Y006861*
X002938Y006865*
X002935Y00687*
X002931Y006874*
X002927Y006878*
X002923Y006881*
X002918Y006885*
X002914Y006888*
X002909Y00689*
X002903Y006893*
X002898Y006894*
X002893Y006896*
X002887Y006897*
X002882Y006898*
X002876Y006898*
X002871*
X002865Y006898*
X00286Y006897*
X002854Y006896*
X002849Y006894*
X002844Y006893*
X002838Y00689*
X002834Y006888*
X002829Y006885*
X002824Y006881*
X00282Y006878*
X002816Y006874*
X002812Y00687*
X002809Y006865*
X002806Y006861*
X002803Y006856*
X0028Y006851*
X002798Y006846*
X002797Y00684*
X002795Y006835*
X002794Y00683*
X002794Y006824*
X002794Y006818*
X002794Y006813*
X002794Y006807*
X002795Y006802*
X002797Y006796*
X002798Y006791*
X0028Y006786*
X002803Y006781*
X002806Y006776*
X002809Y006771*
X002812Y006767*
X002816Y006763*
X00282Y006759*
X002824Y006755*
X002829Y006752*
X002834Y006749*
X002838Y006746*
X002844Y006744*
X002849Y006742*
X002854Y006741*
X00286Y00674*
X002865Y006739*
X002871Y006738*
X002876*
X002882Y006739*
X002887Y00674*
X002893Y006741*
X002898Y006742*
X002903Y006744*
X002909Y006746*
X002914Y006749*
X002918Y006752*
X002923Y006755*
X002927Y006759*
X002931Y006763*
X002935Y006767*
X002938Y006771*
X002941Y006776*
X002944Y006781*
X002947Y006786*
X002949Y006791*
X00295Y006796*
X002952Y006802*
X002953Y006807*
X002953Y006813*
X002954Y006818*
Y007818D02*
D01*
X002953Y007824*
X002953Y00783*
X002952Y007835*
X00295Y00784*
X002949Y007846*
X002947Y007851*
X002944Y007856*
X002941Y007861*
X002938Y007865*
X002935Y00787*
X002931Y007874*
X002927Y007878*
X002923Y007881*
X002918Y007885*
X002914Y007888*
X002909Y00789*
X002903Y007893*
X002898Y007894*
X002893Y007896*
X002887Y007897*
X002882Y007898*
X002876Y007898*
X002871*
X002865Y007898*
X00286Y007897*
X002854Y007896*
X002849Y007894*
X002844Y007893*
X002838Y00789*
X002834Y007888*
X002829Y007885*
X002824Y007881*
X00282Y007878*
X002816Y007874*
X002812Y00787*
X002809Y007865*
X002806Y007861*
X002803Y007856*
X0028Y007851*
X002798Y007846*
X002797Y00784*
X002795Y007835*
X002794Y00783*
X002794Y007824*
X002794Y007818*
X002794Y007813*
X002794Y007807*
X002795Y007802*
X002797Y007796*
X002798Y007791*
X0028Y007786*
X002803Y007781*
X002806Y007776*
X002809Y007771*
X002812Y007767*
X002816Y007763*
X00282Y007759*
X002824Y007755*
X002829Y007752*
X002834Y007749*
X002838Y007746*
X002844Y007744*
X002849Y007742*
X002854Y007741*
X00286Y00774*
X002865Y007739*
X002871Y007738*
X002876*
X002882Y007739*
X002887Y00774*
X002893Y007741*
X002898Y007742*
X002903Y007744*
X002909Y007746*
X002914Y007749*
X002918Y007752*
X002923Y007755*
X002927Y007759*
X002931Y007763*
X002935Y007767*
X002938Y007771*
X002941Y007776*
X002944Y007781*
X002947Y007786*
X002949Y007791*
X00295Y007796*
X002952Y007802*
X002953Y007807*
X002953Y007813*
X002954Y007818*
Y008818D02*
D01*
X002953Y008824*
X002953Y00883*
X002952Y008835*
X00295Y00884*
X002949Y008846*
X002947Y008851*
X002944Y008856*
X002941Y008861*
X002938Y008865*
X002935Y00887*
X002931Y008874*
X002927Y008878*
X002923Y008881*
X002918Y008885*
X002914Y008888*
X002909Y00889*
X002903Y008893*
X002898Y008894*
X002893Y008896*
X002887Y008897*
X002882Y008898*
X002876Y008898*
X002871*
X002865Y008898*
X00286Y008897*
X002854Y008896*
X002849Y008894*
X002844Y008893*
X002838Y00889*
X002834Y008888*
X002829Y008885*
X002824Y008881*
X00282Y008878*
X002816Y008874*
X002812Y00887*
X002809Y008865*
X002806Y008861*
X002803Y008856*
X0028Y008851*
X002798Y008846*
X002797Y00884*
X002795Y008835*
X002794Y00883*
X002794Y008824*
X002794Y008818*
X002794Y008813*
X002794Y008807*
X002795Y008802*
X002797Y008796*
X002798Y008791*
X0028Y008786*
X002803Y008781*
X002806Y008776*
X002809Y008771*
X002812Y008767*
X002816Y008763*
X00282Y008759*
X002824Y008755*
X002829Y008752*
X002834Y008749*
X002838Y008746*
X002844Y008744*
X002849Y008742*
X002854Y008741*
X00286Y00874*
X002865Y008739*
X002871Y008738*
X002876*
X002882Y008739*
X002887Y00874*
X002893Y008741*
X002898Y008742*
X002903Y008744*
X002909Y008746*
X002914Y008749*
X002918Y008752*
X002923Y008755*
X002927Y008759*
X002931Y008763*
X002935Y008767*
X002938Y008771*
X002941Y008776*
X002944Y008781*
X002947Y008786*
X002949Y008791*
X00295Y008796*
X002952Y008802*
X002953Y008807*
X002953Y008813*
X002954Y008818*
X012678Y009169D02*
D01*
X012678Y009174*
X012677Y00918*
X012676Y009185*
X012675Y009191*
X012673Y009196*
X012671Y009201*
X012669Y009206*
X012666Y009211*
X012663Y009216*
X012659Y00922*
X012655Y009224*
X012651Y009228*
X012647Y009232*
X012643Y009235*
X012638Y009238*
X012633Y009241*
X012628Y009243*
X012623Y009245*
X012617Y009246*
X012612Y009248*
X012606Y009248*
X012601Y009249*
X012595*
X01259Y009248*
X012584Y009248*
X012579Y009246*
X012573Y009245*
X012568Y009243*
X012563Y009241*
X012558Y009238*
X012553Y009235*
X012549Y009232*
X012544Y009228*
X01254Y009224*
X012537Y00922*
X012533Y009216*
X01253Y009211*
X012527Y009206*
X012525Y009201*
X012523Y009196*
X012521Y009191*
X01252Y009185*
X012519Y00918*
X012518Y009174*
X012518Y009169*
X012518Y009163*
X012519Y009158*
X01252Y009152*
X012521Y009147*
X012523Y009141*
X012525Y009136*
X012527Y009131*
X01253Y009126*
X012533Y009122*
X012537Y009117*
X01254Y009113*
X012544Y009109*
X012549Y009106*
X012553Y009102*
X012558Y0091*
X012563Y009097*
X012568Y009095*
X012573Y009093*
X012579Y009091*
X012584Y00909*
X01259Y009089*
X012595Y009089*
X012601*
X012606Y009089*
X012612Y00909*
X012617Y009091*
X012623Y009093*
X012628Y009095*
X012633Y009097*
X012638Y0091*
X012643Y009102*
X012647Y009106*
X012651Y009109*
X012655Y009113*
X012659Y009117*
X012663Y009122*
X012666Y009126*
X012669Y009131*
X012671Y009136*
X012673Y009141*
X012675Y009147*
X012676Y009152*
X012677Y009158*
X012678Y009163*
X012678Y009169*
Y012169D02*
D01*
X012678Y012174*
X012677Y01218*
X012676Y012185*
X012675Y012191*
X012673Y012196*
X012671Y012201*
X012669Y012206*
X012666Y012211*
X012663Y012216*
X012659Y01222*
X012655Y012224*
X012651Y012228*
X012647Y012232*
X012643Y012235*
X012638Y012238*
X012633Y012241*
X012628Y012243*
X012623Y012245*
X012617Y012246*
X012612Y012248*
X012606Y012248*
X012601Y012249*
X012595*
X01259Y012248*
X012584Y012248*
X012579Y012246*
X012573Y012245*
X012568Y012243*
X012563Y012241*
X012558Y012238*
X012553Y012235*
X012549Y012232*
X012544Y012228*
X01254Y012224*
X012537Y01222*
X012533Y012216*
X01253Y012211*
X012527Y012206*
X012525Y012201*
X012523Y012196*
X012521Y012191*
X01252Y012185*
X012519Y01218*
X012518Y012174*
X012518Y012169*
X012518Y012163*
X012519Y012158*
X01252Y012152*
X012521Y012147*
X012523Y012141*
X012525Y012136*
X012527Y012131*
X01253Y012126*
X012533Y012122*
X012537Y012117*
X01254Y012113*
X012544Y012109*
X012549Y012106*
X012553Y012102*
X012558Y0121*
X012563Y012097*
X012568Y012095*
X012573Y012093*
X012579Y012091*
X012584Y01209*
X01259Y012089*
X012595Y012089*
X012601*
X012606Y012089*
X012612Y01209*
X012617Y012091*
X012623Y012093*
X012628Y012095*
X012633Y012097*
X012638Y0121*
X012643Y012102*
X012647Y012106*
X012651Y012109*
X012655Y012113*
X012659Y012117*
X012663Y012122*
X012666Y012126*
X012669Y012131*
X012671Y012136*
X012673Y012141*
X012675Y012147*
X012676Y012152*
X012677Y012158*
X012678Y012163*
X012678Y012169*
X010765Y005037D02*
D01*
X010764Y005042*
X010764Y005048*
X010763Y005053*
X010761Y005059*
X01076Y005064*
X010758Y005069*
X010755Y005074*
X010752Y005079*
X010749Y005084*
X010746Y005088*
X010742Y005092*
X010738Y005096*
X010734Y0051*
X010729Y005103*
X010725Y005106*
X01072Y005108*
X010714Y005111*
X010709Y005113*
X010704Y005114*
X010698Y005115*
X010693Y005116*
X010687Y005116*
X010682*
X010676Y005116*
X010671Y005115*
X010665Y005114*
X01066Y005113*
X010655Y005111*
X010649Y005108*
X010645Y005106*
X01064Y005103*
X010635Y0051*
X010631Y005096*
X010627Y005092*
X010623Y005088*
X01062Y005084*
X010617Y005079*
X010614Y005074*
X010611Y005069*
X010609Y005064*
X010608Y005059*
X010606Y005053*
X010605Y005048*
X010605Y005042*
X010605Y005037*
X010605Y005031*
X010605Y005025*
X010606Y00502*
X010608Y005014*
X010609Y005009*
X010611Y005004*
X010614Y004999*
X010617Y004994*
X01062Y004989*
X010623Y004985*
X010627Y004981*
X010631Y004977*
X010635Y004973*
X01064Y00497*
X010645Y004967*
X010649Y004965*
X010655Y004962*
X01066Y00496*
X010665Y004959*
X010671Y004958*
X010676Y004957*
X010682Y004957*
X010687*
X010693Y004957*
X010698Y004958*
X010704Y004959*
X010709Y00496*
X010714Y004962*
X01072Y004965*
X010725Y004967*
X010729Y00497*
X010734Y004973*
X010738Y004977*
X010742Y004981*
X010746Y004985*
X010749Y004989*
X010752Y004994*
X010755Y004999*
X010758Y005004*
X01076Y005009*
X010761Y005014*
X010763Y00502*
X010764Y005025*
X010764Y005031*
X010765Y005037*
X007765D02*
D01*
X007764Y005042*
X007764Y005048*
X007763Y005053*
X007761Y005059*
X00776Y005064*
X007758Y005069*
X007755Y005074*
X007752Y005079*
X007749Y005084*
X007746Y005088*
X007742Y005092*
X007738Y005096*
X007734Y0051*
X007729Y005103*
X007725Y005106*
X00772Y005108*
X007714Y005111*
X007709Y005113*
X007704Y005114*
X007698Y005115*
X007693Y005116*
X007687Y005116*
X007682*
X007676Y005116*
X007671Y005115*
X007665Y005114*
X00766Y005113*
X007655Y005111*
X007649Y005108*
X007645Y005106*
X00764Y005103*
X007635Y0051*
X007631Y005096*
X007627Y005092*
X007623Y005088*
X00762Y005084*
X007617Y005079*
X007614Y005074*
X007611Y005069*
X007609Y005064*
X007608Y005059*
X007606Y005053*
X007605Y005048*
X007605Y005042*
X007605Y005037*
X007605Y005031*
X007605Y005025*
X007606Y00502*
X007608Y005014*
X007609Y005009*
X007611Y005004*
X007614Y004999*
X007617Y004994*
X00762Y004989*
X007623Y004985*
X007627Y004981*
X007631Y004977*
X007635Y004973*
X00764Y00497*
X007645Y004967*
X007649Y004965*
X007655Y004962*
X00766Y00496*
X007665Y004959*
X007671Y004958*
X007676Y004957*
X007682Y004957*
X007687*
X007693Y004957*
X007698Y004958*
X007704Y004959*
X007709Y00496*
X007714Y004962*
X00772Y004965*
X007725Y004967*
X007729Y00497*
X007734Y004973*
X007738Y004977*
X007742Y004981*
X007746Y004985*
X007749Y004989*
X007752Y004994*
X007755Y004999*
X007758Y005004*
X00776Y005009*
X007761Y005014*
X007763Y00502*
X007764Y005025*
X007764Y005031*
X007765Y005037*
X010513Y009169D02*
D01*
X010512Y009174*
X010512Y00918*
X010511Y009185*
X01051Y009191*
X010508Y009196*
X010506Y009201*
X010503Y009206*
X0105Y009211*
X010497Y009216*
X010494Y00922*
X01049Y009224*
X010486Y009228*
X010482Y009232*
X010477Y009235*
X010473Y009238*
X010468Y009241*
X010463Y009243*
X010457Y009245*
X010452Y009246*
X010446Y009248*
X010441Y009248*
X010435Y009249*
X01043*
X010424Y009248*
X010419Y009248*
X010413Y009246*
X010408Y009245*
X010403Y009243*
X010398Y009241*
X010393Y009238*
X010388Y009235*
X010383Y009232*
X010379Y009228*
X010375Y009224*
X010371Y00922*
X010368Y009216*
X010365Y009211*
X010362Y009206*
X01036Y009201*
X010357Y009196*
X010356Y009191*
X010354Y009185*
X010353Y00918*
X010353Y009174*
X010353Y009169*
X010353Y009163*
X010353Y009158*
X010354Y009152*
X010356Y009147*
X010357Y009141*
X01036Y009136*
X010362Y009131*
X010365Y009126*
X010368Y009122*
X010371Y009117*
X010375Y009113*
X010379Y009109*
X010383Y009106*
X010388Y009102*
X010393Y0091*
X010398Y009097*
X010403Y009095*
X010408Y009093*
X010413Y009091*
X010419Y00909*
X010424Y009089*
X01043Y009089*
X010435*
X010441Y009089*
X010446Y00909*
X010452Y009091*
X010457Y009093*
X010463Y009095*
X010468Y009097*
X010473Y0091*
X010477Y009102*
X010482Y009106*
X010486Y009109*
X01049Y009113*
X010494Y009117*
X010497Y009122*
X0105Y009126*
X010503Y009131*
X010506Y009136*
X010508Y009141*
X01051Y009147*
X010511Y009152*
X010512Y009158*
X010512Y009163*
X010513Y009169*
Y012169D02*
D01*
X010512Y012174*
X010512Y01218*
X010511Y012185*
X01051Y012191*
X010508Y012196*
X010506Y012201*
X010503Y012206*
X0105Y012211*
X010497Y012216*
X010494Y01222*
X01049Y012224*
X010486Y012228*
X010482Y012232*
X010477Y012235*
X010473Y012238*
X010468Y012241*
X010463Y012243*
X010457Y012245*
X010452Y012246*
X010446Y012248*
X010441Y012248*
X010435Y012249*
X01043*
X010424Y012248*
X010419Y012248*
X010413Y012246*
X010408Y012245*
X010403Y012243*
X010398Y012241*
X010393Y012238*
X010388Y012235*
X010383Y012232*
X010379Y012228*
X010375Y012224*
X010371Y01222*
X010368Y012216*
X010365Y012211*
X010362Y012206*
X01036Y012201*
X010357Y012196*
X010356Y012191*
X010354Y012185*
X010353Y01218*
X010353Y012174*
X010353Y012169*
X010353Y012163*
X010353Y012158*
X010354Y012152*
X010356Y012147*
X010357Y012141*
X01036Y012136*
X010362Y012131*
X010365Y012126*
X010368Y012122*
X010371Y012117*
X010375Y012113*
X010379Y012109*
X010383Y012106*
X010388Y012102*
X010393Y0121*
X010398Y012097*
X010403Y012095*
X010408Y012093*
X010413Y012091*
X010419Y01209*
X010424Y012089*
X01043Y012089*
X010435*
X010441Y012089*
X010446Y01209*
X010452Y012091*
X010457Y012093*
X010463Y012095*
X010468Y012097*
X010473Y0121*
X010477Y012102*
X010482Y012106*
X010486Y012109*
X01049Y012113*
X010494Y012117*
X010497Y012122*
X0105Y012126*
X010503Y012131*
X010506Y012136*
X010508Y012141*
X01051Y012147*
X010511Y012152*
X010512Y012158*
X010512Y012163*
X010513Y012169*
X005339Y00885D02*
D01*
X005339Y008855*
X005339Y008861*
X005338Y008867*
X005336Y008872*
X005334Y008877*
X005332Y008882*
X00533Y008887*
X005327Y008892*
X005324Y008897*
X005321Y008901*
X005317Y008905*
X005313Y008909*
X005309Y008913*
X005304Y008916*
X005299Y008919*
X005294Y008922*
X005289Y008924*
X005284Y008926*
X005279Y008928*
X005273Y008929*
X005268Y008929*
X005262Y00893*
X005257*
X005251Y008929*
X005245Y008929*
X00524Y008928*
X005235Y008926*
X005229Y008924*
X005224Y008922*
X005219Y008919*
X005215Y008916*
X00521Y008913*
X005206Y008909*
X005202Y008905*
X005198Y008901*
X005195Y008897*
X005191Y008892*
X005189Y008887*
X005186Y008882*
X005184Y008877*
X005182Y008872*
X005181Y008867*
X00518Y008861*
X005179Y008855*
X005179Y00885*
X005179Y008844*
X00518Y008839*
X005181Y008833*
X005182Y008828*
X005184Y008823*
X005186Y008817*
X005189Y008812*
X005191Y008808*
X005195Y008803*
X005198Y008798*
X005202Y008794*
X005206Y00879*
X00521Y008787*
X005215Y008784*
X005219Y008781*
X005224Y008778*
X005229Y008776*
X005235Y008774*
X00524Y008772*
X005245Y008771*
X005251Y00877*
X005257Y00877*
X005262*
X005268Y00877*
X005273Y008771*
X005279Y008772*
X005284Y008774*
X005289Y008776*
X005294Y008778*
X005299Y008781*
X005304Y008784*
X005309Y008787*
X005313Y00879*
X005317Y008794*
X005321Y008798*
X005324Y008803*
X005327Y008808*
X00533Y008812*
X005332Y008817*
X005334Y008823*
X005336Y008828*
X005338Y008833*
X005339Y008839*
X005339Y008844*
X005339Y00885*
X006339D02*
D01*
X006339Y008855*
X006339Y008861*
X006338Y008867*
X006336Y008872*
X006334Y008877*
X006332Y008882*
X00633Y008887*
X006327Y008892*
X006324Y008897*
X006321Y008901*
X006317Y008905*
X006313Y008909*
X006309Y008913*
X006304Y008916*
X006299Y008919*
X006294Y008922*
X006289Y008924*
X006284Y008926*
X006279Y008928*
X006273Y008929*
X006268Y008929*
X006262Y00893*
X006257*
X006251Y008929*
X006245Y008929*
X00624Y008928*
X006235Y008926*
X006229Y008924*
X006224Y008922*
X006219Y008919*
X006215Y008916*
X00621Y008913*
X006206Y008909*
X006202Y008905*
X006198Y008901*
X006195Y008897*
X006191Y008892*
X006189Y008887*
X006186Y008882*
X006184Y008877*
X006182Y008872*
X006181Y008867*
X00618Y008861*
X006179Y008855*
X006179Y00885*
X006179Y008844*
X00618Y008839*
X006181Y008833*
X006182Y008828*
X006184Y008823*
X006186Y008817*
X006189Y008812*
X006191Y008808*
X006195Y008803*
X006198Y008798*
X006202Y008794*
X006206Y00879*
X00621Y008787*
X006215Y008784*
X006219Y008781*
X006224Y008778*
X006229Y008776*
X006235Y008774*
X00624Y008772*
X006245Y008771*
X006251Y00877*
X006257Y00877*
X006262*
X006268Y00877*
X006273Y008771*
X006279Y008772*
X006284Y008774*
X006289Y008776*
X006294Y008778*
X006299Y008781*
X006304Y008784*
X006309Y008787*
X006313Y00879*
X006317Y008794*
X006321Y008798*
X006324Y008803*
X006327Y008808*
X00633Y008812*
X006332Y008817*
X006334Y008823*
X006336Y008828*
X006338Y008833*
X006339Y008839*
X006339Y008844*
X006339Y00885*
X005339Y00785D02*
D01*
X005339Y007855*
X005339Y007861*
X005338Y007867*
X005336Y007872*
X005334Y007877*
X005332Y007882*
X00533Y007887*
X005327Y007892*
X005324Y007897*
X005321Y007901*
X005317Y007905*
X005313Y007909*
X005309Y007913*
X005304Y007916*
X005299Y007919*
X005294Y007922*
X005289Y007924*
X005284Y007926*
X005279Y007928*
X005273Y007929*
X005268Y007929*
X005262Y00793*
X005257*
X005251Y007929*
X005245Y007929*
X00524Y007928*
X005235Y007926*
X005229Y007924*
X005224Y007922*
X005219Y007919*
X005215Y007916*
X00521Y007913*
X005206Y007909*
X005202Y007905*
X005198Y007901*
X005195Y007897*
X005191Y007892*
X005189Y007887*
X005186Y007882*
X005184Y007877*
X005182Y007872*
X005181Y007867*
X00518Y007861*
X005179Y007855*
X005179Y00785*
X005179Y007844*
X00518Y007839*
X005181Y007833*
X005182Y007828*
X005184Y007823*
X005186Y007817*
X005189Y007812*
X005191Y007808*
X005195Y007803*
X005198Y007798*
X005202Y007794*
X005206Y00779*
X00521Y007787*
X005215Y007784*
X005219Y007781*
X005224Y007778*
X005229Y007776*
X005235Y007774*
X00524Y007772*
X005245Y007771*
X005251Y00777*
X005257Y00777*
X005262*
X005268Y00777*
X005273Y007771*
X005279Y007772*
X005284Y007774*
X005289Y007776*
X005294Y007778*
X005299Y007781*
X005304Y007784*
X005309Y007787*
X005313Y00779*
X005317Y007794*
X005321Y007798*
X005324Y007803*
X005327Y007808*
X00533Y007812*
X005332Y007817*
X005334Y007823*
X005336Y007828*
X005338Y007833*
X005339Y007839*
X005339Y007844*
X005339Y00785*
X006339D02*
D01*
X006339Y007855*
X006339Y007861*
X006338Y007867*
X006336Y007872*
X006334Y007877*
X006332Y007882*
X00633Y007887*
X006327Y007892*
X006324Y007897*
X006321Y007901*
X006317Y007905*
X006313Y007909*
X006309Y007913*
X006304Y007916*
X006299Y007919*
X006294Y007922*
X006289Y007924*
X006284Y007926*
X006279Y007928*
X006273Y007929*
X006268Y007929*
X006262Y00793*
X006257*
X006251Y007929*
X006245Y007929*
X00624Y007928*
X006235Y007926*
X006229Y007924*
X006224Y007922*
X006219Y007919*
X006215Y007916*
X00621Y007913*
X006206Y007909*
X006202Y007905*
X006198Y007901*
X006195Y007897*
X006191Y007892*
X006189Y007887*
X006186Y007882*
X006184Y007877*
X006182Y007872*
X006181Y007867*
X00618Y007861*
X006179Y007855*
X006179Y00785*
X006179Y007844*
X00618Y007839*
X006181Y007833*
X006182Y007828*
X006184Y007823*
X006186Y007817*
X006189Y007812*
X006191Y007808*
X006195Y007803*
X006198Y007798*
X006202Y007794*
X006206Y00779*
X00621Y007787*
X006215Y007784*
X006219Y007781*
X006224Y007778*
X006229Y007776*
X006235Y007774*
X00624Y007772*
X006245Y007771*
X006251Y00777*
X006257Y00777*
X006262*
X006268Y00777*
X006273Y007771*
X006279Y007772*
X006284Y007774*
X006289Y007776*
X006294Y007778*
X006299Y007781*
X006304Y007784*
X006309Y007787*
X006313Y00779*
X006317Y007794*
X006321Y007798*
X006324Y007803*
X006327Y007808*
X00633Y007812*
X006332Y007817*
X006334Y007823*
X006336Y007828*
X006338Y007833*
X006339Y007839*
X006339Y007844*
X006339Y00785*
X005339Y00685D02*
D01*
X005339Y006855*
X005339Y006861*
X005338Y006867*
X005336Y006872*
X005334Y006877*
X005332Y006882*
X00533Y006887*
X005327Y006892*
X005324Y006897*
X005321Y006901*
X005317Y006905*
X005313Y006909*
X005309Y006913*
X005304Y006916*
X005299Y006919*
X005294Y006922*
X005289Y006924*
X005284Y006926*
X005279Y006928*
X005273Y006929*
X005268Y006929*
X005262Y00693*
X005257*
X005251Y006929*
X005245Y006929*
X00524Y006928*
X005235Y006926*
X005229Y006924*
X005224Y006922*
X005219Y006919*
X005215Y006916*
X00521Y006913*
X005206Y006909*
X005202Y006905*
X005198Y006901*
X005195Y006897*
X005191Y006892*
X005189Y006887*
X005186Y006882*
X005184Y006877*
X005182Y006872*
X005181Y006867*
X00518Y006861*
X005179Y006855*
X005179Y00685*
X005179Y006844*
X00518Y006839*
X005181Y006833*
X005182Y006828*
X005184Y006823*
X005186Y006817*
X005189Y006812*
X005191Y006808*
X005195Y006803*
X005198Y006798*
X005202Y006794*
X005206Y00679*
X00521Y006787*
X005215Y006784*
X005219Y006781*
X005224Y006778*
X005229Y006776*
X005235Y006774*
X00524Y006772*
X005245Y006771*
X005251Y00677*
X005257Y00677*
X005262*
X005268Y00677*
X005273Y006771*
X005279Y006772*
X005284Y006774*
X005289Y006776*
X005294Y006778*
X005299Y006781*
X005304Y006784*
X005309Y006787*
X005313Y00679*
X005317Y006794*
X005321Y006798*
X005324Y006803*
X005327Y006808*
X00533Y006812*
X005332Y006817*
X005334Y006823*
X005336Y006828*
X005338Y006833*
X005339Y006839*
X005339Y006844*
X005339Y00685*
X006339D02*
D01*
X006339Y006855*
X006339Y006861*
X006338Y006867*
X006336Y006872*
X006334Y006877*
X006332Y006882*
X00633Y006887*
X006327Y006892*
X006324Y006897*
X006321Y006901*
X006317Y006905*
X006313Y006909*
X006309Y006913*
X006304Y006916*
X006299Y006919*
X006294Y006922*
X006289Y006924*
X006284Y006926*
X006279Y006928*
X006273Y006929*
X006268Y006929*
X006262Y00693*
X006257*
X006251Y006929*
X006245Y006929*
X00624Y006928*
X006235Y006926*
X006229Y006924*
X006224Y006922*
X006219Y006919*
X006215Y006916*
X00621Y006913*
X006206Y006909*
X006202Y006905*
X006198Y006901*
X006195Y006897*
X006191Y006892*
X006189Y006887*
X006186Y006882*
X006184Y006877*
X006182Y006872*
X006181Y006867*
X00618Y006861*
X006179Y006855*
X006179Y00685*
X006179Y006844*
X00618Y006839*
X006181Y006833*
X006182Y006828*
X006184Y006823*
X006186Y006817*
X006189Y006812*
X006191Y006808*
X006195Y006803*
X006198Y006798*
X006202Y006794*
X006206Y00679*
X00621Y006787*
X006215Y006784*
X006219Y006781*
X006224Y006778*
X006229Y006776*
X006235Y006774*
X00624Y006772*
X006245Y006771*
X006251Y00677*
X006257Y00677*
X006262*
X006268Y00677*
X006273Y006771*
X006279Y006772*
X006284Y006774*
X006289Y006776*
X006294Y006778*
X006299Y006781*
X006304Y006784*
X006309Y006787*
X006313Y00679*
X006317Y006794*
X006321Y006798*
X006324Y006803*
X006327Y006808*
X00633Y006812*
X006332Y006817*
X006334Y006823*
X006336Y006828*
X006338Y006833*
X006339Y006839*
X006339Y006844*
X006339Y00685*
X028544Y004582D02*
D01*
X028544Y004588*
X028543Y004593*
X028542Y004599*
X028541Y004604*
X028539Y00461*
X028537Y004615*
X028535Y00462*
X028532Y004625*
X028529Y004629*
X028525Y004634*
X028522Y004638*
X028518Y004642*
X028513Y004645*
X028509Y004649*
X028504Y004651*
X028499Y004654*
X028494Y004656*
X028489Y004658*
X028483Y00466*
X028478Y004661*
X028472Y004662*
X028467Y004662*
X028461*
X028456Y004662*
X02845Y004661*
X028445Y00466*
X028439Y004658*
X028434Y004656*
X028429Y004654*
X028424Y004651*
X028419Y004649*
X028415Y004645*
X028411Y004642*
X028407Y004638*
X028403Y004634*
X028399Y004629*
X028396Y004625*
X028393Y00462*
X028391Y004615*
X028389Y00461*
X028387Y004604*
X028386Y004599*
X028385Y004593*
X028384Y004588*
X028384Y004582*
X028384Y004577*
X028385Y004571*
X028386Y004566*
X028387Y00456*
X028389Y004555*
X028391Y00455*
X028393Y004545*
X028396Y00454*
X028399Y004535*
X028403Y004531*
X028407Y004527*
X028411Y004523*
X028415Y004519*
X028419Y004516*
X028424Y004513*
X028429Y00451*
X028434Y004508*
X028439Y004506*
X028445Y004505*
X02845Y004503*
X028456Y004503*
X028461Y004502*
X028467*
X028472Y004503*
X028478Y004503*
X028483Y004505*
X028489Y004506*
X028494Y004508*
X028499Y00451*
X028504Y004513*
X028509Y004516*
X028513Y004519*
X028518Y004523*
X028522Y004527*
X028525Y004531*
X028529Y004535*
X028532Y00454*
X028535Y004545*
X028537Y00455*
X028539Y004555*
X028541Y00456*
X028542Y004566*
X028543Y004571*
X028544Y004577*
X028544Y004582*
Y003582D02*
D01*
X028544Y003588*
X028543Y003593*
X028542Y003599*
X028541Y003604*
X028539Y00361*
X028537Y003615*
X028535Y00362*
X028532Y003625*
X028529Y003629*
X028525Y003634*
X028522Y003638*
X028518Y003642*
X028513Y003645*
X028509Y003649*
X028504Y003651*
X028499Y003654*
X028494Y003656*
X028489Y003658*
X028483Y00366*
X028478Y003661*
X028472Y003662*
X028467Y003662*
X028461*
X028456Y003662*
X02845Y003661*
X028445Y00366*
X028439Y003658*
X028434Y003656*
X028429Y003654*
X028424Y003651*
X028419Y003649*
X028415Y003645*
X028411Y003642*
X028407Y003638*
X028403Y003634*
X028399Y003629*
X028396Y003625*
X028393Y00362*
X028391Y003615*
X028389Y00361*
X028387Y003604*
X028386Y003599*
X028385Y003593*
X028384Y003588*
X028384Y003582*
X028384Y003577*
X028385Y003571*
X028386Y003566*
X028387Y00356*
X028389Y003555*
X028391Y00355*
X028393Y003545*
X028396Y00354*
X028399Y003535*
X028403Y003531*
X028407Y003527*
X028411Y003523*
X028415Y003519*
X028419Y003516*
X028424Y003513*
X028429Y00351*
X028434Y003508*
X028439Y003506*
X028445Y003505*
X02845Y003503*
X028456Y003503*
X028461Y003502*
X028467*
X028472Y003503*
X028478Y003503*
X028483Y003505*
X028489Y003506*
X028494Y003508*
X028499Y00351*
X028504Y003513*
X028509Y003516*
X028513Y003519*
X028518Y003523*
X028522Y003527*
X028525Y003531*
X028529Y003535*
X028532Y00354*
X028535Y003545*
X028537Y00355*
X028539Y003555*
X028541Y00356*
X028542Y003566*
X028543Y003571*
X028544Y003577*
X028544Y003582*
Y002582D02*
D01*
X028544Y002588*
X028543Y002593*
X028542Y002599*
X028541Y002604*
X028539Y00261*
X028537Y002615*
X028535Y00262*
X028532Y002625*
X028529Y002629*
X028525Y002634*
X028522Y002638*
X028518Y002642*
X028513Y002645*
X028509Y002649*
X028504Y002651*
X028499Y002654*
X028494Y002656*
X028489Y002658*
X028483Y00266*
X028478Y002661*
X028472Y002662*
X028467Y002662*
X028461*
X028456Y002662*
X02845Y002661*
X028445Y00266*
X028439Y002658*
X028434Y002656*
X028429Y002654*
X028424Y002651*
X028419Y002649*
X028415Y002645*
X028411Y002642*
X028407Y002638*
X028403Y002634*
X028399Y002629*
X028396Y002625*
X028393Y00262*
X028391Y002615*
X028389Y00261*
X028387Y002604*
X028386Y002599*
X028385Y002593*
X028384Y002588*
X028384Y002582*
X028384Y002577*
X028385Y002571*
X028386Y002566*
X028387Y00256*
X028389Y002555*
X028391Y00255*
X028393Y002545*
X028396Y00254*
X028399Y002535*
X028403Y002531*
X028407Y002527*
X028411Y002523*
X028415Y002519*
X028419Y002516*
X028424Y002513*
X028429Y00251*
X028434Y002508*
X028439Y002506*
X028445Y002505*
X02845Y002503*
X028456Y002503*
X028461Y002502*
X028467*
X028472Y002503*
X028478Y002503*
X028483Y002505*
X028489Y002506*
X028494Y002508*
X028499Y00251*
X028504Y002513*
X028509Y002516*
X028513Y002519*
X028518Y002523*
X028522Y002527*
X028525Y002531*
X028529Y002535*
X028532Y00254*
X028535Y002545*
X028537Y00255*
X028539Y002555*
X028541Y00256*
X028542Y002566*
X028543Y002571*
X028544Y002577*
X028544Y002582*
X029725Y007122D02*
D01*
X029725Y007127*
X029724Y007133*
X029723Y007138*
X029722Y007144*
X02972Y007149*
X029718Y007154*
X029716Y007159*
X029713Y007164*
X02971Y007169*
X029706Y007173*
X029703Y007177*
X029699Y007181*
X029694Y007185*
X02969Y007188*
X029685Y007191*
X02968Y007193*
X029675Y007196*
X02967Y007198*
X029665Y007199*
X029659Y0072*
X029654Y007201*
X029648Y007201*
X029642*
X029637Y007201*
X029631Y0072*
X029626Y007199*
X02962Y007198*
X029615Y007196*
X02961Y007193*
X029605Y007191*
X0296Y007188*
X029596Y007185*
X029592Y007181*
X029588Y007177*
X029584Y007173*
X02958Y007169*
X029577Y007164*
X029575Y007159*
X029572Y007154*
X02957Y007149*
X029568Y007144*
X029567Y007138*
X029566Y007133*
X029565Y007127*
X029565Y007122*
X029565Y007116*
X029566Y00711*
X029567Y007105*
X029568Y007099*
X02957Y007094*
X029572Y007089*
X029575Y007084*
X029577Y007079*
X02958Y007074*
X029584Y00707*
X029588Y007066*
X029592Y007062*
X029596Y007058*
X0296Y007055*
X029605Y007052*
X02961Y00705*
X029615Y007047*
X02962Y007045*
X029626Y007044*
X029631Y007043*
X029637Y007042*
X029642Y007042*
X029648*
X029654Y007042*
X029659Y007043*
X029665Y007044*
X02967Y007045*
X029675Y007047*
X02968Y00705*
X029685Y007052*
X02969Y007055*
X029694Y007058*
X029699Y007062*
X029703Y007066*
X029706Y00707*
X02971Y007074*
X029713Y007079*
X029716Y007084*
X029718Y007089*
X02972Y007094*
X029722Y007099*
X029723Y007105*
X029724Y00711*
X029725Y007116*
X029725Y007122*
Y010122D02*
D01*
X029725Y010127*
X029724Y010133*
X029723Y010138*
X029722Y010144*
X02972Y010149*
X029718Y010154*
X029716Y010159*
X029713Y010164*
X02971Y010169*
X029706Y010173*
X029703Y010177*
X029699Y010181*
X029694Y010185*
X02969Y010188*
X029685Y010191*
X02968Y010194*
X029675Y010196*
X02967Y010198*
X029665Y010199*
X029659Y0102*
X029654Y010201*
X029648Y010202*
X029642*
X029637Y010201*
X029631Y0102*
X029626Y010199*
X02962Y010198*
X029615Y010196*
X02961Y010194*
X029605Y010191*
X0296Y010188*
X029596Y010185*
X029592Y010181*
X029588Y010177*
X029584Y010173*
X02958Y010169*
X029577Y010164*
X029575Y010159*
X029572Y010154*
X02957Y010149*
X029568Y010144*
X029567Y010138*
X029566Y010133*
X029565Y010127*
X029565Y010122*
X029565Y010116*
X029566Y01011*
X029567Y010105*
X029568Y0101*
X02957Y010094*
X029572Y010089*
X029575Y010084*
X029577Y010079*
X02958Y010075*
X029584Y01007*
X029588Y010066*
X029592Y010062*
X029596Y010059*
X0296Y010055*
X029605Y010052*
X02961Y01005*
X029615Y010047*
X02962Y010046*
X029626Y010044*
X029631Y010043*
X029637Y010042*
X029642Y010042*
X029648*
X029654Y010042*
X029659Y010043*
X029665Y010044*
X02967Y010046*
X029675Y010047*
X02968Y01005*
X029685Y010052*
X02969Y010055*
X029694Y010059*
X029699Y010062*
X029703Y010066*
X029706Y01007*
X02971Y010075*
X029713Y010079*
X029716Y010084*
X029718Y010089*
X02972Y010094*
X029722Y0101*
X029723Y010105*
X029724Y01011*
X029725Y010116*
X029725Y010122*
X01508Y012708D02*
D01*
X015079Y012714*
X015079Y012719*
X015078Y012725*
X015076Y01273*
X015075Y012736*
X015073Y012741*
X01507Y012746*
X015067Y012751*
X015064Y012755*
X015061Y01276*
X015057Y012764*
X015053Y012768*
X015049Y012771*
X015044Y012775*
X01504Y012777*
X015035Y01278*
X015029Y012782*
X015024Y012784*
X015019Y012786*
X015013Y012787*
X015008Y012788*
X015002Y012788*
X014997*
X014991Y012788*
X014986Y012787*
X01498Y012786*
X014975Y012784*
X01497Y012782*
X014964Y01278*
X01496Y012777*
X014955Y012775*
X01495Y012771*
X014946Y012768*
X014942Y012764*
X014938Y01276*
X014935Y012755*
X014932Y012751*
X014929Y012746*
X014926Y012741*
X014924Y012736*
X014923Y01273*
X014921Y012725*
X01492Y012719*
X01492Y012714*
X01492Y012708*
X01492Y012703*
X01492Y012697*
X014921Y012692*
X014923Y012686*
X014924Y012681*
X014926Y012676*
X014929Y012671*
X014932Y012666*
X014935Y012661*
X014938Y012657*
X014942Y012653*
X014946Y012649*
X01495Y012645*
X014955Y012642*
X01496Y012639*
X014964Y012636*
X01497Y012634*
X014975Y012632*
X01498Y012631*
X014986Y012629*
X014991Y012629*
X014997Y012628*
X015002*
X015008Y012629*
X015013Y012629*
X015019Y012631*
X015024Y012632*
X015029Y012634*
X015035Y012636*
X01504Y012639*
X015044Y012642*
X015049Y012645*
X015053Y012649*
X015057Y012653*
X015061Y012657*
X015064Y012661*
X015067Y012666*
X01507Y012671*
X015073Y012676*
X015075Y012681*
X015076Y012686*
X015078Y012692*
X015079Y012697*
X015079Y012703*
X01508Y012708*
Y008708D02*
D01*
X015079Y008714*
X015079Y008719*
X015078Y008725*
X015076Y00873*
X015075Y008736*
X015073Y008741*
X01507Y008746*
X015067Y008751*
X015064Y008755*
X015061Y00876*
X015057Y008764*
X015053Y008768*
X015049Y008771*
X015044Y008775*
X01504Y008777*
X015035Y00878*
X015029Y008782*
X015024Y008784*
X015019Y008786*
X015013Y008787*
X015008Y008788*
X015002Y008788*
X014997*
X014991Y008788*
X014986Y008787*
X01498Y008786*
X014975Y008784*
X01497Y008782*
X014964Y00878*
X01496Y008777*
X014955Y008775*
X01495Y008771*
X014946Y008768*
X014942Y008764*
X014938Y00876*
X014935Y008755*
X014932Y008751*
X014929Y008746*
X014926Y008741*
X014924Y008736*
X014923Y00873*
X014921Y008725*
X01492Y008719*
X01492Y008714*
X01492Y008708*
X01492Y008703*
X01492Y008697*
X014921Y008692*
X014923Y008686*
X014924Y008681*
X014926Y008676*
X014929Y008671*
X014932Y008666*
X014935Y008661*
X014938Y008657*
X014942Y008653*
X014946Y008649*
X01495Y008645*
X014955Y008642*
X01496Y008639*
X014964Y008636*
X01497Y008634*
X014975Y008632*
X01498Y008631*
X014986Y008629*
X014991Y008629*
X014997Y008628*
X015002*
X015008Y008629*
X015013Y008629*
X015019Y008631*
X015024Y008632*
X015029Y008634*
X015035Y008636*
X01504Y008639*
X015044Y008642*
X015049Y008645*
X015053Y008649*
X015057Y008653*
X015061Y008657*
X015064Y008661*
X015067Y008666*
X01507Y008671*
X015073Y008676*
X015075Y008681*
X015076Y008686*
X015078Y008692*
X015079Y008697*
X015079Y008703*
X01508Y008708*
X016415Y004687D02*
D01*
X016414Y004692*
X016414Y004698*
X016413Y004703*
X016411Y004709*
X01641Y004714*
X016408Y004719*
X016405Y004724*
X016402Y004729*
X016399Y004734*
X016396Y004738*
X016392Y004742*
X016388Y004746*
X016384Y00475*
X016379Y004753*
X016375Y004756*
X01637Y004758*
X016364Y004761*
X016359Y004763*
X016354Y004764*
X016348Y004765*
X016343Y004766*
X016337Y004766*
X016332*
X016326Y004766*
X016321Y004765*
X016315Y004764*
X01631Y004763*
X016305Y004761*
X016299Y004758*
X016295Y004756*
X01629Y004753*
X016285Y00475*
X016281Y004746*
X016277Y004742*
X016273Y004738*
X01627Y004734*
X016267Y004729*
X016264Y004724*
X016261Y004719*
X016259Y004714*
X016258Y004709*
X016256Y004703*
X016255Y004698*
X016255Y004692*
X016255Y004687*
X016255Y004681*
X016255Y004675*
X016256Y00467*
X016258Y004664*
X016259Y004659*
X016261Y004654*
X016264Y004649*
X016267Y004644*
X01627Y004639*
X016273Y004635*
X016277Y004631*
X016281Y004627*
X016285Y004623*
X01629Y00462*
X016295Y004617*
X016299Y004615*
X016305Y004612*
X01631Y00461*
X016315Y004609*
X016321Y004608*
X016326Y004607*
X016332Y004607*
X016337*
X016343Y004607*
X016348Y004608*
X016354Y004609*
X016359Y00461*
X016364Y004612*
X01637Y004615*
X016375Y004617*
X016379Y00462*
X016384Y004623*
X016388Y004627*
X016392Y004631*
X016396Y004635*
X016399Y004639*
X016402Y004644*
X016405Y004649*
X016408Y004654*
X01641Y004659*
X016411Y004664*
X016413Y00467*
X016414Y004675*
X016414Y004681*
X016415Y004687*
Y008687D02*
D01*
X016414Y008692*
X016414Y008698*
X016413Y008703*
X016411Y008709*
X01641Y008714*
X016408Y008719*
X016405Y008724*
X016402Y008729*
X016399Y008734*
X016396Y008738*
X016392Y008742*
X016388Y008746*
X016384Y00875*
X016379Y008753*
X016375Y008756*
X01637Y008758*
X016364Y008761*
X016359Y008763*
X016354Y008764*
X016348Y008765*
X016343Y008766*
X016337Y008766*
X016332*
X016326Y008766*
X016321Y008765*
X016315Y008764*
X01631Y008763*
X016305Y008761*
X016299Y008758*
X016295Y008756*
X01629Y008753*
X016285Y00875*
X016281Y008746*
X016277Y008742*
X016273Y008738*
X01627Y008734*
X016267Y008729*
X016264Y008724*
X016261Y008719*
X016259Y008714*
X016258Y008709*
X016256Y008703*
X016255Y008698*
X016255Y008692*
X016255Y008687*
X016255Y008681*
X016255Y008675*
X016256Y00867*
X016258Y008664*
X016259Y008659*
X016261Y008654*
X016264Y008649*
X016267Y008644*
X01627Y008639*
X016273Y008635*
X016277Y008631*
X016281Y008627*
X016285Y008623*
X01629Y00862*
X016295Y008617*
X016299Y008615*
X016305Y008612*
X01631Y00861*
X016315Y008609*
X016321Y008608*
X016326Y008607*
X016332Y008607*
X016337*
X016343Y008607*
X016348Y008608*
X016354Y008609*
X016359Y00861*
X016364Y008612*
X01637Y008615*
X016375Y008617*
X016379Y00862*
X016384Y008623*
X016388Y008627*
X016392Y008631*
X016396Y008635*
X016399Y008639*
X016402Y008644*
X016405Y008649*
X016408Y008654*
X01641Y008659*
X016411Y008664*
X016413Y00867*
X016414Y008675*
X016414Y008681*
X016415Y008687*
X039422Y004855D02*
D01*
X039421Y004861*
X039421Y004867*
X03942Y004872*
X039419Y004877*
X039417Y004883*
X039415Y004888*
X039412Y004893*
X039409Y004898*
X039406Y004902*
X039403Y004907*
X039399Y004911*
X039395Y004915*
X039391Y004918*
X039386Y004922*
X039382Y004925*
X039377Y004927*
X039372Y00493*
X039366Y004931*
X039361Y004933*
X039355Y004934*
X03935Y004935*
X039344Y004935*
X039339*
X039333Y004935*
X039328Y004934*
X039322Y004933*
X039317Y004931*
X039312Y00493*
X039307Y004927*
X039302Y004925*
X039297Y004922*
X039292Y004918*
X039288Y004915*
X039284Y004911*
X03928Y004907*
X039277Y004902*
X039274Y004898*
X039271Y004893*
X039269Y004888*
X039266Y004883*
X039265Y004877*
X039263Y004872*
X039262Y004867*
X039262Y004861*
X039262Y004855*
X039262Y00485*
X039262Y004844*
X039263Y004839*
X039265Y004833*
X039266Y004828*
X039269Y004823*
X039271Y004818*
X039274Y004813*
X039277Y004808*
X03928Y004804*
X039284Y0048*
X039288Y004796*
X039292Y004792*
X039297Y004789*
X039302Y004786*
X039307Y004783*
X039312Y004781*
X039317Y004779*
X039322Y004778*
X039328Y004777*
X039333Y004776*
X039339Y004775*
X039344*
X03935Y004776*
X039355Y004777*
X039361Y004778*
X039366Y004779*
X039372Y004781*
X039377Y004783*
X039382Y004786*
X039386Y004789*
X039391Y004792*
X039395Y004796*
X039399Y0048*
X039403Y004804*
X039406Y004808*
X039409Y004813*
X039412Y004818*
X039415Y004823*
X039417Y004828*
X039419Y004833*
X03942Y004839*
X039421Y004844*
X039421Y00485*
X039422Y004855*
X038422D02*
D01*
X038421Y004861*
X038421Y004867*
X03842Y004872*
X038419Y004877*
X038417Y004883*
X038415Y004888*
X038412Y004893*
X038409Y004898*
X038406Y004902*
X038403Y004907*
X038399Y004911*
X038395Y004915*
X038391Y004918*
X038386Y004922*
X038382Y004925*
X038377Y004927*
X038372Y00493*
X038366Y004931*
X038361Y004933*
X038355Y004934*
X03835Y004935*
X038344Y004935*
X038339*
X038333Y004935*
X038328Y004934*
X038322Y004933*
X038317Y004931*
X038312Y00493*
X038307Y004927*
X038302Y004925*
X038297Y004922*
X038292Y004918*
X038288Y004915*
X038284Y004911*
X03828Y004907*
X038277Y004902*
X038274Y004898*
X038271Y004893*
X038269Y004888*
X038266Y004883*
X038265Y004877*
X038263Y004872*
X038262Y004867*
X038262Y004861*
X038262Y004855*
X038262Y00485*
X038262Y004844*
X038263Y004839*
X038265Y004833*
X038266Y004828*
X038269Y004823*
X038271Y004818*
X038274Y004813*
X038277Y004808*
X03828Y004804*
X038284Y0048*
X038288Y004796*
X038292Y004792*
X038297Y004789*
X038302Y004786*
X038307Y004783*
X038312Y004781*
X038317Y004779*
X038322Y004778*
X038328Y004777*
X038333Y004776*
X038339Y004775*
X038344*
X03835Y004776*
X038355Y004777*
X038361Y004778*
X038366Y004779*
X038372Y004781*
X038377Y004783*
X038382Y004786*
X038386Y004789*
X038391Y004792*
X038395Y004796*
X038399Y0048*
X038403Y004804*
X038406Y004808*
X038409Y004813*
X038412Y004818*
X038415Y004823*
X038417Y004828*
X038419Y004833*
X03842Y004839*
X038421Y004844*
X038421Y00485*
X038422Y004855*
X039422Y005855D02*
D01*
X039421Y005861*
X039421Y005867*
X03942Y005872*
X039419Y005877*
X039417Y005883*
X039415Y005888*
X039412Y005893*
X039409Y005898*
X039406Y005902*
X039403Y005907*
X039399Y005911*
X039395Y005915*
X039391Y005918*
X039386Y005922*
X039382Y005925*
X039377Y005927*
X039372Y00593*
X039366Y005931*
X039361Y005933*
X039355Y005934*
X03935Y005935*
X039344Y005935*
X039339*
X039333Y005935*
X039328Y005934*
X039322Y005933*
X039317Y005931*
X039312Y00593*
X039307Y005927*
X039302Y005925*
X039297Y005922*
X039292Y005918*
X039288Y005915*
X039284Y005911*
X03928Y005907*
X039277Y005902*
X039274Y005898*
X039271Y005893*
X039269Y005888*
X039266Y005883*
X039265Y005877*
X039263Y005872*
X039262Y005867*
X039262Y005861*
X039262Y005855*
X039262Y00585*
X039262Y005844*
X039263Y005839*
X039265Y005833*
X039266Y005828*
X039269Y005823*
X039271Y005818*
X039274Y005813*
X039277Y005808*
X03928Y005804*
X039284Y0058*
X039288Y005796*
X039292Y005792*
X039297Y005789*
X039302Y005786*
X039307Y005783*
X039312Y005781*
X039317Y005779*
X039322Y005778*
X039328Y005777*
X039333Y005776*
X039339Y005775*
X039344*
X03935Y005776*
X039355Y005777*
X039361Y005778*
X039366Y005779*
X039372Y005781*
X039377Y005783*
X039382Y005786*
X039386Y005789*
X039391Y005792*
X039395Y005796*
X039399Y0058*
X039403Y005804*
X039406Y005808*
X039409Y005813*
X039412Y005818*
X039415Y005823*
X039417Y005828*
X039419Y005833*
X03942Y005839*
X039421Y005844*
X039421Y00585*
X039422Y005855*
X038422D02*
D01*
X038421Y005861*
X038421Y005867*
X03842Y005872*
X038419Y005877*
X038417Y005883*
X038415Y005888*
X038412Y005893*
X038409Y005898*
X038406Y005902*
X038403Y005907*
X038399Y005911*
X038395Y005915*
X038391Y005918*
X038386Y005922*
X038382Y005925*
X038377Y005927*
X038372Y00593*
X038366Y005931*
X038361Y005933*
X038355Y005934*
X03835Y005935*
X038344Y005935*
X038339*
X038333Y005935*
X038328Y005934*
X038322Y005933*
X038317Y005931*
X038312Y00593*
X038307Y005927*
X038302Y005925*
X038297Y005922*
X038292Y005918*
X038288Y005915*
X038284Y005911*
X03828Y005907*
X038277Y005902*
X038274Y005898*
X038271Y005893*
X038269Y005888*
X038266Y005883*
X038265Y005877*
X038263Y005872*
X038262Y005867*
X038262Y005861*
X038262Y005855*
X038262Y00585*
X038262Y005844*
X038263Y005839*
X038265Y005833*
X038266Y005828*
X038269Y005823*
X038271Y005818*
X038274Y005813*
X038277Y005808*
X03828Y005804*
X038284Y0058*
X038288Y005796*
X038292Y005792*
X038297Y005789*
X038302Y005786*
X038307Y005783*
X038312Y005781*
X038317Y005779*
X038322Y005778*
X038328Y005777*
X038333Y005776*
X038339Y005775*
X038344*
X03835Y005776*
X038355Y005777*
X038361Y005778*
X038366Y005779*
X038372Y005781*
X038377Y005783*
X038382Y005786*
X038386Y005789*
X038391Y005792*
X038395Y005796*
X038399Y0058*
X038403Y005804*
X038406Y005808*
X038409Y005813*
X038412Y005818*
X038415Y005823*
X038417Y005828*
X038419Y005833*
X03842Y005839*
X038421Y005844*
X038421Y00585*
X038422Y005855*
X039422Y006855D02*
D01*
X039421Y006861*
X039421Y006867*
X03942Y006872*
X039419Y006877*
X039417Y006883*
X039415Y006888*
X039412Y006893*
X039409Y006898*
X039406Y006902*
X039403Y006907*
X039399Y006911*
X039395Y006915*
X039391Y006918*
X039386Y006922*
X039382Y006925*
X039377Y006927*
X039372Y00693*
X039366Y006931*
X039361Y006933*
X039355Y006934*
X03935Y006935*
X039344Y006935*
X039339*
X039333Y006935*
X039328Y006934*
X039322Y006933*
X039317Y006931*
X039312Y00693*
X039307Y006927*
X039302Y006925*
X039297Y006922*
X039292Y006918*
X039288Y006915*
X039284Y006911*
X03928Y006907*
X039277Y006902*
X039274Y006898*
X039271Y006893*
X039269Y006888*
X039266Y006883*
X039265Y006877*
X039263Y006872*
X039262Y006867*
X039262Y006861*
X039262Y006855*
X039262Y00685*
X039262Y006844*
X039263Y006839*
X039265Y006833*
X039266Y006828*
X039269Y006823*
X039271Y006818*
X039274Y006813*
X039277Y006808*
X03928Y006804*
X039284Y0068*
X039288Y006796*
X039292Y006792*
X039297Y006789*
X039302Y006786*
X039307Y006783*
X039312Y006781*
X039317Y006779*
X039322Y006778*
X039328Y006777*
X039333Y006776*
X039339Y006775*
X039344*
X03935Y006776*
X039355Y006777*
X039361Y006778*
X039366Y006779*
X039372Y006781*
X039377Y006783*
X039382Y006786*
X039386Y006789*
X039391Y006792*
X039395Y006796*
X039399Y0068*
X039403Y006804*
X039406Y006808*
X039409Y006813*
X039412Y006818*
X039415Y006823*
X039417Y006828*
X039419Y006833*
X03942Y006839*
X039421Y006844*
X039421Y00685*
X039422Y006855*
X038422D02*
D01*
X038421Y006861*
X038421Y006867*
X03842Y006872*
X038419Y006877*
X038417Y006883*
X038415Y006888*
X038412Y006893*
X038409Y006898*
X038406Y006902*
X038403Y006907*
X038399Y006911*
X038395Y006915*
X038391Y006918*
X038386Y006922*
X038382Y006925*
X038377Y006927*
X038372Y00693*
X038366Y006931*
X038361Y006933*
X038355Y006934*
X03835Y006935*
X038344Y006935*
X038339*
X038333Y006935*
X038328Y006934*
X038322Y006933*
X038317Y006931*
X038312Y00693*
X038307Y006927*
X038302Y006925*
X038297Y006922*
X038292Y006918*
X038288Y006915*
X038284Y006911*
X03828Y006907*
X038277Y006902*
X038274Y006898*
X038271Y006893*
X038269Y006888*
X038266Y006883*
X038265Y006877*
X038263Y006872*
X038262Y006867*
X038262Y006861*
X038262Y006855*
X038262Y00685*
X038262Y006844*
X038263Y006839*
X038265Y006833*
X038266Y006828*
X038269Y006823*
X038271Y006818*
X038274Y006813*
X038277Y006808*
X03828Y006804*
X038284Y0068*
X038288Y006796*
X038292Y006792*
X038297Y006789*
X038302Y006786*
X038307Y006783*
X038312Y006781*
X038317Y006779*
X038322Y006778*
X038328Y006777*
X038333Y006776*
X038339Y006775*
X038344*
X03835Y006776*
X038355Y006777*
X038361Y006778*
X038366Y006779*
X038372Y006781*
X038377Y006783*
X038382Y006786*
X038386Y006789*
X038391Y006792*
X038395Y006796*
X038399Y0068*
X038403Y006804*
X038406Y006808*
X038409Y006813*
X038412Y006818*
X038415Y006823*
X038417Y006828*
X038419Y006833*
X03842Y006839*
X038421Y006844*
X038421Y00685*
X038422Y006855*
X039422Y007855D02*
D01*
X039421Y007861*
X039421Y007867*
X03942Y007872*
X039419Y007877*
X039417Y007883*
X039415Y007888*
X039412Y007893*
X039409Y007898*
X039406Y007902*
X039403Y007907*
X039399Y007911*
X039395Y007915*
X039391Y007918*
X039386Y007922*
X039382Y007925*
X039377Y007927*
X039372Y00793*
X039366Y007931*
X039361Y007933*
X039355Y007934*
X03935Y007935*
X039344Y007935*
X039339*
X039333Y007935*
X039328Y007934*
X039322Y007933*
X039317Y007931*
X039312Y00793*
X039307Y007927*
X039302Y007925*
X039297Y007922*
X039292Y007918*
X039288Y007915*
X039284Y007911*
X03928Y007907*
X039277Y007902*
X039274Y007898*
X039271Y007893*
X039269Y007888*
X039266Y007883*
X039265Y007877*
X039263Y007872*
X039262Y007867*
X039262Y007861*
X039262Y007855*
X039262Y00785*
X039262Y007844*
X039263Y007839*
X039265Y007833*
X039266Y007828*
X039269Y007823*
X039271Y007818*
X039274Y007813*
X039277Y007808*
X03928Y007804*
X039284Y0078*
X039288Y007796*
X039292Y007792*
X039297Y007789*
X039302Y007786*
X039307Y007783*
X039312Y007781*
X039317Y007779*
X039322Y007778*
X039328Y007777*
X039333Y007776*
X039339Y007775*
X039344*
X03935Y007776*
X039355Y007777*
X039361Y007778*
X039366Y007779*
X039372Y007781*
X039377Y007783*
X039382Y007786*
X039386Y007789*
X039391Y007792*
X039395Y007796*
X039399Y0078*
X039403Y007804*
X039406Y007808*
X039409Y007813*
X039412Y007818*
X039415Y007823*
X039417Y007828*
X039419Y007833*
X03942Y007839*
X039421Y007844*
X039421Y00785*
X039422Y007855*
X038422D02*
D01*
X038421Y007861*
X038421Y007867*
X03842Y007872*
X038419Y007877*
X038417Y007883*
X038415Y007888*
X038412Y007893*
X038409Y007898*
X038406Y007902*
X038403Y007907*
X038399Y007911*
X038395Y007915*
X038391Y007918*
X038386Y007922*
X038382Y007925*
X038377Y007927*
X038372Y00793*
X038366Y007931*
X038361Y007933*
X038355Y007934*
X03835Y007935*
X038344Y007935*
X038339*
X038333Y007935*
X038328Y007934*
X038322Y007933*
X038317Y007931*
X038312Y00793*
X038307Y007927*
X038302Y007925*
X038297Y007922*
X038292Y007918*
X038288Y007915*
X038284Y007911*
X03828Y007907*
X038277Y007902*
X038274Y007898*
X038271Y007893*
X038269Y007888*
X038266Y007883*
X038265Y007877*
X038263Y007872*
X038262Y007867*
X038262Y007861*
X038262Y007855*
X038262Y00785*
X038262Y007844*
X038263Y007839*
X038265Y007833*
X038266Y007828*
X038269Y007823*
X038271Y007818*
X038274Y007813*
X038277Y007808*
X03828Y007804*
X038284Y0078*
X038288Y007796*
X038292Y007792*
X038297Y007789*
X038302Y007786*
X038307Y007783*
X038312Y007781*
X038317Y007779*
X038322Y007778*
X038328Y007777*
X038333Y007776*
X038339Y007775*
X038344*
X03835Y007776*
X038355Y007777*
X038361Y007778*
X038366Y007779*
X038372Y007781*
X038377Y007783*
X038382Y007786*
X038386Y007789*
X038391Y007792*
X038395Y007796*
X038399Y0078*
X038403Y007804*
X038406Y007808*
X038409Y007813*
X038412Y007818*
X038415Y007823*
X038417Y007828*
X038419Y007833*
X03842Y007839*
X038421Y007844*
X038421Y00785*
X038422Y007855*
X039422Y008855D02*
D01*
X039421Y008861*
X039421Y008867*
X03942Y008872*
X039419Y008877*
X039417Y008883*
X039415Y008888*
X039412Y008893*
X039409Y008898*
X039406Y008902*
X039403Y008907*
X039399Y008911*
X039395Y008915*
X039391Y008918*
X039386Y008922*
X039382Y008925*
X039377Y008927*
X039372Y00893*
X039366Y008931*
X039361Y008933*
X039355Y008934*
X03935Y008935*
X039344Y008935*
X039339*
X039333Y008935*
X039328Y008934*
X039322Y008933*
X039317Y008931*
X039312Y00893*
X039307Y008927*
X039302Y008925*
X039297Y008922*
X039292Y008918*
X039288Y008915*
X039284Y008911*
X03928Y008907*
X039277Y008902*
X039274Y008898*
X039271Y008893*
X039269Y008888*
X039266Y008883*
X039265Y008877*
X039263Y008872*
X039262Y008867*
X039262Y008861*
X039262Y008855*
X039262Y00885*
X039262Y008844*
X039263Y008839*
X039265Y008833*
X039266Y008828*
X039269Y008823*
X039271Y008818*
X039274Y008813*
X039277Y008808*
X03928Y008804*
X039284Y0088*
X039288Y008796*
X039292Y008792*
X039297Y008789*
X039302Y008786*
X039307Y008783*
X039312Y008781*
X039317Y008779*
X039322Y008778*
X039328Y008777*
X039333Y008776*
X039339Y008775*
X039344*
X03935Y008776*
X039355Y008777*
X039361Y008778*
X039366Y008779*
X039372Y008781*
X039377Y008783*
X039382Y008786*
X039386Y008789*
X039391Y008792*
X039395Y008796*
X039399Y0088*
X039403Y008804*
X039406Y008808*
X039409Y008813*
X039412Y008818*
X039415Y008823*
X039417Y008828*
X039419Y008833*
X03942Y008839*
X039421Y008844*
X039421Y00885*
X039422Y008855*
X038422D02*
D01*
X038421Y008861*
X038421Y008867*
X03842Y008872*
X038419Y008877*
X038417Y008883*
X038415Y008888*
X038412Y008893*
X038409Y008898*
X038406Y008902*
X038403Y008907*
X038399Y008911*
X038395Y008915*
X038391Y008918*
X038386Y008922*
X038382Y008925*
X038377Y008927*
X038372Y00893*
X038366Y008931*
X038361Y008933*
X038355Y008934*
X03835Y008935*
X038344Y008935*
X038339*
X038333Y008935*
X038328Y008934*
X038322Y008933*
X038317Y008931*
X038312Y00893*
X038307Y008927*
X038302Y008925*
X038297Y008922*
X038292Y008918*
X038288Y008915*
X038284Y008911*
X03828Y008907*
X038277Y008902*
X038274Y008898*
X038271Y008893*
X038269Y008888*
X038266Y008883*
X038265Y008877*
X038263Y008872*
X038262Y008867*
X038262Y008861*
X038262Y008855*
X038262Y00885*
X038262Y008844*
X038263Y008839*
X038265Y008833*
X038266Y008828*
X038269Y008823*
X038271Y008818*
X038274Y008813*
X038277Y008808*
X03828Y008804*
X038284Y0088*
X038288Y008796*
X038292Y008792*
X038297Y008789*
X038302Y008786*
X038307Y008783*
X038312Y008781*
X038317Y008779*
X038322Y008778*
X038328Y008777*
X038333Y008776*
X038339Y008775*
X038344*
X03835Y008776*
X038355Y008777*
X038361Y008778*
X038366Y008779*
X038372Y008781*
X038377Y008783*
X038382Y008786*
X038386Y008789*
X038391Y008792*
X038395Y008796*
X038399Y0088*
X038403Y008804*
X038406Y008808*
X038409Y008813*
X038412Y008818*
X038415Y008823*
X038417Y008828*
X038419Y008833*
X03842Y008839*
X038421Y008844*
X038421Y00885*
X038422Y008855*
X039422Y009855D02*
D01*
X039421Y009861*
X039421Y009867*
X03942Y009872*
X039419Y009877*
X039417Y009883*
X039415Y009888*
X039412Y009893*
X039409Y009898*
X039406Y009902*
X039403Y009907*
X039399Y009911*
X039395Y009915*
X039391Y009918*
X039386Y009922*
X039382Y009925*
X039377Y009927*
X039372Y00993*
X039366Y009931*
X039361Y009933*
X039355Y009934*
X03935Y009935*
X039344Y009935*
X039339*
X039333Y009935*
X039328Y009934*
X039322Y009933*
X039317Y009931*
X039312Y00993*
X039307Y009927*
X039302Y009925*
X039297Y009922*
X039292Y009918*
X039288Y009915*
X039284Y009911*
X03928Y009907*
X039277Y009902*
X039274Y009898*
X039271Y009893*
X039269Y009888*
X039266Y009883*
X039265Y009877*
X039263Y009872*
X039262Y009867*
X039262Y009861*
X039262Y009855*
X039262Y00985*
X039262Y009844*
X039263Y009839*
X039265Y009833*
X039266Y009828*
X039269Y009823*
X039271Y009818*
X039274Y009813*
X039277Y009808*
X03928Y009804*
X039284Y0098*
X039288Y009796*
X039292Y009792*
X039297Y009789*
X039302Y009786*
X039307Y009783*
X039312Y009781*
X039317Y009779*
X039322Y009778*
X039328Y009777*
X039333Y009776*
X039339Y009775*
X039344*
X03935Y009776*
X039355Y009777*
X039361Y009778*
X039366Y009779*
X039372Y009781*
X039377Y009783*
X039382Y009786*
X039386Y009789*
X039391Y009792*
X039395Y009796*
X039399Y0098*
X039403Y009804*
X039406Y009808*
X039409Y009813*
X039412Y009818*
X039415Y009823*
X039417Y009828*
X039419Y009833*
X03942Y009839*
X039421Y009844*
X039421Y00985*
X039422Y009855*
X038422D02*
D01*
X038421Y009861*
X038421Y009867*
X03842Y009872*
X038419Y009877*
X038417Y009883*
X038415Y009888*
X038412Y009893*
X038409Y009898*
X038406Y009902*
X038403Y009907*
X038399Y009911*
X038395Y009915*
X038391Y009918*
X038386Y009922*
X038382Y009925*
X038377Y009927*
X038372Y00993*
X038366Y009931*
X038361Y009933*
X038355Y009934*
X03835Y009935*
X038344Y009935*
X038339*
X038333Y009935*
X038328Y009934*
X038322Y009933*
X038317Y009931*
X038312Y00993*
X038307Y009927*
X038302Y009925*
X038297Y009922*
X038292Y009918*
X038288Y009915*
X038284Y009911*
X03828Y009907*
X038277Y009902*
X038274Y009898*
X038271Y009893*
X038269Y009888*
X038266Y009883*
X038265Y009877*
X038263Y009872*
X038262Y009867*
X038262Y009861*
X038262Y009855*
X038262Y00985*
X038262Y009844*
X038263Y009839*
X038265Y009833*
X038266Y009828*
X038269Y009823*
X038271Y009818*
X038274Y009813*
X038277Y009808*
X03828Y009804*
X038284Y0098*
X038288Y009796*
X038292Y009792*
X038297Y009789*
X038302Y009786*
X038307Y009783*
X038312Y009781*
X038317Y009779*
X038322Y009778*
X038328Y009777*
X038333Y009776*
X038339Y009775*
X038344*
X03835Y009776*
X038355Y009777*
X038361Y009778*
X038366Y009779*
X038372Y009781*
X038377Y009783*
X038382Y009786*
X038386Y009789*
X038391Y009792*
X038395Y009796*
X038399Y0098*
X038403Y009804*
X038406Y009808*
X038409Y009813*
X038412Y009818*
X038415Y009823*
X038417Y009828*
X038419Y009833*
X03842Y009839*
X038421Y009844*
X038421Y00985*
X038422Y009855*
X039422Y010855D02*
D01*
X039421Y010861*
X039421Y010867*
X03942Y010872*
X039419Y010877*
X039417Y010883*
X039415Y010888*
X039412Y010893*
X039409Y010898*
X039406Y010902*
X039403Y010907*
X039399Y010911*
X039395Y010915*
X039391Y010918*
X039386Y010922*
X039382Y010925*
X039377Y010927*
X039372Y01093*
X039366Y010931*
X039361Y010933*
X039355Y010934*
X03935Y010935*
X039344Y010935*
X039339*
X039333Y010935*
X039328Y010934*
X039322Y010933*
X039317Y010931*
X039312Y01093*
X039307Y010927*
X039302Y010925*
X039297Y010922*
X039292Y010918*
X039288Y010915*
X039284Y010911*
X03928Y010907*
X039277Y010902*
X039274Y010898*
X039271Y010893*
X039269Y010888*
X039266Y010883*
X039265Y010877*
X039263Y010872*
X039262Y010867*
X039262Y010861*
X039262Y010855*
X039262Y01085*
X039262Y010844*
X039263Y010839*
X039265Y010833*
X039266Y010828*
X039269Y010823*
X039271Y010818*
X039274Y010813*
X039277Y010808*
X03928Y010804*
X039284Y0108*
X039288Y010796*
X039292Y010792*
X039297Y010789*
X039302Y010786*
X039307Y010783*
X039312Y010781*
X039317Y010779*
X039322Y010778*
X039328Y010777*
X039333Y010776*
X039339Y010775*
X039344*
X03935Y010776*
X039355Y010777*
X039361Y010778*
X039366Y010779*
X039372Y010781*
X039377Y010783*
X039382Y010786*
X039386Y010789*
X039391Y010792*
X039395Y010796*
X039399Y0108*
X039403Y010804*
X039406Y010808*
X039409Y010813*
X039412Y010818*
X039415Y010823*
X039417Y010828*
X039419Y010833*
X03942Y010839*
X039421Y010844*
X039421Y01085*
X039422Y010855*
X038422D02*
D01*
X038421Y010861*
X038421Y010867*
X03842Y010872*
X038419Y010877*
X038417Y010883*
X038415Y010888*
X038412Y010893*
X038409Y010898*
X038406Y010902*
X038403Y010907*
X038399Y010911*
X038395Y010915*
X038391Y010918*
X038386Y010922*
X038382Y010925*
X038377Y010927*
X038372Y01093*
X038366Y010931*
X038361Y010933*
X038355Y010934*
X03835Y010935*
X038344Y010935*
X038339*
X038333Y010935*
X038328Y010934*
X038322Y010933*
X038317Y010931*
X038312Y01093*
X038307Y010927*
X038302Y010925*
X038297Y010922*
X038292Y010918*
X038288Y010915*
X038284Y010911*
X03828Y010907*
X038277Y010902*
X038274Y010898*
X038271Y010893*
X038269Y010888*
X038266Y010883*
X038265Y010877*
X038263Y010872*
X038262Y010867*
X038262Y010861*
X038262Y010855*
X038262Y01085*
X038262Y010844*
X038263Y010839*
X038265Y010833*
X038266Y010828*
X038269Y010823*
X038271Y010818*
X038274Y010813*
X038277Y010808*
X03828Y010804*
X038284Y0108*
X038288Y010796*
X038292Y010792*
X038297Y010789*
X038302Y010786*
X038307Y010783*
X038312Y010781*
X038317Y010779*
X038322Y010778*
X038328Y010777*
X038333Y010776*
X038339Y010775*
X038344*
X03835Y010776*
X038355Y010777*
X038361Y010778*
X038366Y010779*
X038372Y010781*
X038377Y010783*
X038382Y010786*
X038386Y010789*
X038391Y010792*
X038395Y010796*
X038399Y0108*
X038403Y010804*
X038406Y010808*
X038409Y010813*
X038412Y010818*
X038415Y010823*
X038417Y010828*
X038419Y010833*
X03842Y010839*
X038421Y010844*
X038421Y01085*
X038422Y010855*
X007879Y011574D02*
D01*
X007879Y01158*
X007878Y011585*
X007877Y011591*
X007876Y011596*
X007874Y011602*
X007872Y011607*
X007869Y011612*
X007867Y011617*
X007863Y011621*
X00786Y011626*
X007856Y01163*
X007852Y011634*
X007848Y011637*
X007843Y011641*
X007839Y011644*
X007834Y011646*
X007829Y011648*
X007823Y01165*
X007818Y011652*
X007813Y011653*
X007807Y011654*
X007801Y011654*
X007796*
X00779Y011654*
X007785Y011653*
X007779Y011652*
X007774Y01165*
X007769Y011648*
X007764Y011646*
X007759Y011644*
X007754Y011641*
X007749Y011637*
X007745Y011634*
X007741Y01163*
X007737Y011626*
X007734Y011621*
X007731Y011617*
X007728Y011612*
X007726Y011607*
X007724Y011602*
X007722Y011596*
X00772Y011591*
X007719Y011585*
X007719Y01158*
X007719Y011574*
X007719Y011569*
X007719Y011563*
X00772Y011558*
X007722Y011552*
X007724Y011547*
X007726Y011542*
X007728Y011537*
X007731Y011532*
X007734Y011527*
X007737Y011523*
X007741Y011519*
X007745Y011515*
X007749Y011511*
X007754Y011508*
X007759Y011505*
X007764Y011502*
X007769Y0115*
X007774Y011498*
X007779Y011497*
X007785Y011496*
X00779Y011495*
X007796Y011494*
X007801*
X007807Y011495*
X007813Y011496*
X007818Y011497*
X007823Y011498*
X007829Y0115*
X007834Y011502*
X007839Y011505*
X007843Y011508*
X007848Y011511*
X007852Y011515*
X007856Y011519*
X00786Y011523*
X007863Y011527*
X007867Y011532*
X007869Y011537*
X007872Y011542*
X007874Y011547*
X007876Y011552*
X007877Y011558*
X007878Y011563*
X007879Y011569*
X007879Y011574*
X004879D02*
D01*
X004879Y01158*
X004878Y011585*
X004877Y011591*
X004876Y011596*
X004874Y011602*
X004872Y011607*
X004869Y011612*
X004867Y011617*
X004863Y011621*
X00486Y011626*
X004856Y01163*
X004852Y011634*
X004848Y011637*
X004843Y011641*
X004839Y011644*
X004834Y011646*
X004829Y011648*
X004823Y01165*
X004818Y011652*
X004813Y011653*
X004807Y011654*
X004801Y011654*
X004796*
X00479Y011654*
X004785Y011653*
X004779Y011652*
X004774Y01165*
X004769Y011648*
X004764Y011646*
X004759Y011644*
X004754Y011641*
X004749Y011637*
X004745Y011634*
X004741Y01163*
X004737Y011626*
X004734Y011621*
X004731Y011617*
X004728Y011612*
X004726Y011607*
X004724Y011602*
X004722Y011596*
X00472Y011591*
X004719Y011585*
X004719Y01158*
X004719Y011574*
X004719Y011569*
X004719Y011563*
X00472Y011558*
X004722Y011552*
X004724Y011547*
X004726Y011542*
X004728Y011537*
X004731Y011532*
X004734Y011527*
X004737Y011523*
X004741Y011519*
X004745Y011515*
X004749Y011511*
X004754Y011508*
X004759Y011505*
X004764Y011502*
X004769Y0115*
X004774Y011498*
X004779Y011497*
X004785Y011496*
X00479Y011495*
X004796Y011494*
X004801*
X004807Y011495*
X004813Y011496*
X004818Y011497*
X004823Y011498*
X004829Y0115*
X004834Y011502*
X004839Y011505*
X004843Y011508*
X004848Y011511*
X004852Y011515*
X004856Y011519*
X00486Y011523*
X004863Y011527*
X004867Y011532*
X004869Y011537*
X004872Y011542*
X004874Y011547*
X004876Y011552*
X004877Y011558*
X004878Y011563*
X004879Y011569*
X004879Y011574*
X003032Y011641D02*
D01*
X003032Y011647*
X003032Y011652*
X003031Y011658*
X003029Y011663*
X003027Y011669*
X003025Y011674*
X003023Y011679*
X00302Y011684*
X003017Y011688*
X003014Y011693*
X00301Y011697*
X003006Y011701*
X003002Y011704*
X002997Y011708*
X002992Y01171*
X002987Y011713*
X002982Y011715*
X002977Y011717*
X002972Y011719*
X002966Y01172*
X002961Y011721*
X002955Y011721*
X00295*
X002944Y011721*
X002938Y01172*
X002933Y011719*
X002928Y011717*
X002922Y011715*
X002917Y011713*
X002912Y01171*
X002908Y011708*
X002903Y011704*
X002899Y011701*
X002895Y011697*
X002891Y011693*
X002888Y011688*
X002884Y011684*
X002882Y011679*
X002879Y011674*
X002877Y011669*
X002875Y011663*
X002874Y011658*
X002873Y011652*
X002872Y011647*
X002872Y011641*
X002872Y011636*
X002873Y01163*
X002874Y011625*
X002875Y011619*
X002877Y011614*
X002879Y011609*
X002882Y011604*
X002884Y011599*
X002888Y011594*
X002891Y01159*
X002895Y011586*
X002899Y011582*
X002903Y011578*
X002908Y011575*
X002912Y011572*
X002917Y011569*
X002922Y011567*
X002928Y011565*
X002933Y011564*
X002938Y011562*
X002944Y011562*
X00295Y011561*
X002955*
X002961Y011562*
X002966Y011562*
X002972Y011564*
X002977Y011565*
X002982Y011567*
X002987Y011569*
X002992Y011572*
X002997Y011575*
X003002Y011578*
X003006Y011582*
X00301Y011586*
X003014Y01159*
X003017Y011594*
X00302Y011599*
X003023Y011604*
X003025Y011609*
X003027Y011614*
X003029Y011619*
X003031Y011625*
X003032Y01163*
X003032Y011636*
X003032Y011641*
Y010641D02*
D01*
X003032Y010647*
X003032Y010652*
X003031Y010658*
X003029Y010663*
X003027Y010669*
X003025Y010674*
X003023Y010679*
X00302Y010684*
X003017Y010688*
X003014Y010693*
X00301Y010697*
X003006Y010701*
X003002Y010704*
X002997Y010708*
X002992Y01071*
X002987Y010713*
X002982Y010715*
X002977Y010717*
X002972Y010719*
X002966Y01072*
X002961Y010721*
X002955Y010721*
X00295*
X002944Y010721*
X002938Y01072*
X002933Y010719*
X002928Y010717*
X002922Y010715*
X002917Y010713*
X002912Y01071*
X002908Y010708*
X002903Y010704*
X002899Y010701*
X002895Y010697*
X002891Y010693*
X002888Y010688*
X002884Y010684*
X002882Y010679*
X002879Y010674*
X002877Y010669*
X002875Y010663*
X002874Y010658*
X002873Y010652*
X002872Y010647*
X002872Y010641*
X002872Y010636*
X002873Y01063*
X002874Y010625*
X002875Y010619*
X002877Y010614*
X002879Y010609*
X002882Y010604*
X002884Y010599*
X002888Y010594*
X002891Y01059*
X002895Y010586*
X002899Y010582*
X002903Y010578*
X002908Y010575*
X002912Y010572*
X002917Y010569*
X002922Y010567*
X002928Y010565*
X002933Y010564*
X002938Y010562*
X002944Y010562*
X00295Y010561*
X002955*
X002961Y010562*
X002966Y010562*
X002972Y010564*
X002977Y010565*
X002982Y010567*
X002987Y010569*
X002992Y010572*
X002997Y010575*
X003002Y010578*
X003006Y010582*
X00301Y010586*
X003014Y01059*
X003017Y010594*
X00302Y010599*
X003023Y010604*
X003025Y010609*
X003027Y010614*
X003029Y010619*
X003031Y010625*
X003032Y01063*
X003032Y010636*
X003032Y010641*
M02*