%FSTAX24Y24*%
%MOIN*%
%SFA1B1*%

%IPPOS*%
%ADD16R,0.086740X0.086740*%
%ADD17R,0.086740X0.086740*%
%ADD18R,0.126110X0.126110*%
%ADD19O,0.047370X0.086740*%
%ADD20O,0.047370X0.086740*%
%ADD21C,0.204850*%
%ADD22C,0.068000*%
%LNpcb1-1*%
%LPD*%
G54D16*
X018937Y014881D03*
X024055D03*
Y008976D03*
X018937D03*
X010685Y005037D03*
X007685D03*
X007799Y011574D03*
X004799D03*
X002952Y011641D03*
Y010641D03*
G54D17*
X026417Y007212D03*
Y011212D03*
X002874Y006818D03*
Y007818D03*
Y008818D03*
X012598Y009169D03*
Y012169D03*
X010433Y009169D03*
Y012169D03*
X005259Y00885D03*
X006259D03*
X005259Y00785D03*
X006259D03*
X005259Y00685D03*
X006259D03*
X028464Y004582D03*
Y003582D03*
Y002582D03*
X029645Y007122D03*
Y010122D03*
X015Y012708D03*
Y008708D03*
X016335Y004687D03*
Y008687D03*
X039342Y004855D03*
X038342D03*
X039342Y005855D03*
X038342D03*
X039342Y006855D03*
X038342D03*
X039342Y007855D03*
X038342D03*
X039342Y008855D03*
X038342D03*
X039342Y009855D03*
X038342D03*
X039342Y010855D03*
X038342D03*
G54D18*
X027796Y013855D03*
X036064D03*
X043346Y007795D03*
Y009881D03*
Y005511D03*
G54D19*
X013085Y007037D03*
X012085D03*
G54D20*
X012585Y007037D03*
G54D21*
X021929Y003582D03*
X044291Y001417D03*
Y014448D03*
X001259Y001259D03*
Y014566D03*
G54D22*
X007283Y00374D03*
Y001378D03*
M02*