%FSTAX25Y25*%
%MOIN*%
%SFA1B1*%

%IPPOS*%
%ADD10C,0.010000*%
%ADD23C,0.039370*%
%ADD25R,0.078740X0.078740*%
%ADD26R,0.078740X0.078740*%
%ADD27R,0.118110X0.118110*%
%ADD28O,0.039370X0.078740*%
%ADD29O,0.039370X0.078740*%
%ADD30C,0.196850*%
%ADD31C,0.060000*%
%ADD32C,0.078740*%
%ADD33C,0.118110*%
%ADD34R,0.338580X0.602360*%
%ADD35R,0.881890X0.230080*%
%ADD36R,1.255900X0.220080*%
%LNpcb1-1*%
%LPD*%
G36*
X0176772Y0153178D02*
X0170158D01*
X0169Y0153064*
X0167887Y0152726*
X0166861Y0152178*
X0165962Y015144*
X0149843Y0135321*
X0148684Y0136479*
X0147785Y0137217*
X0146759Y0137766*
X0145646Y0138103*
X0144488Y0138217*
X0116142*
Y0138218*
X0114984Y0138103*
X0113871Y0137766*
X0112845Y0137217*
X0111946Y0136479*
X0105033Y0129567*
X0096457*
Y0113819*
X0112205*
Y0119954*
X0117648Y0125398*
X011811Y0125206*
Y0113819*
X0130415*
X0130619Y011371*
X0136416Y0107912*
Y0059828*
X0132892Y0056304*
X0131784*
Y0065575*
X0132347Y0065809*
X0132967Y0066284*
X0133443Y0066904*
X0133742Y0067627*
X0133844Y0068401*
Y0072339*
X0133742Y0073114*
X0133443Y0073836*
X0132967Y0074456*
X0132347Y0074932*
X0131625Y0075231*
X0130953Y0075319*
X0130784Y0075635*
X0130046Y0076535*
X0129147Y0077273*
X0128121Y0077821*
X0127008Y0078159*
X012585Y0078273*
X0124693Y0078159*
X012358Y0077821*
X012335Y0077698*
X0123121Y0077821*
X0122008Y0078159*
X0121393Y0078219*
X0112205Y0087408*
Y0099567*
X0101603*
Y0105118*
X0101489Y0106276*
X0101152Y0107389*
X0100603Y0108415*
X0099865Y0109314*
X0089235Y0119944*
X0088336Y0120682*
X008731Y012123*
X0086197Y0121568*
X0085866Y0121601*
Y0123622*
X0070118*
Y0120105*
X0069352Y0119476*
X0048402Y0098527*
X0047664Y0097628*
X0047116Y0096601*
X0047048Y0096378*
X0044724*
Y0084123*
X0036614*
Y0086063*
X0033677*
Y0086713*
X002874*
X0023803*
Y0086063*
X0020866*
Y0076063*
Y0072311*
X0020447Y0071801*
X0019899Y0070775*
X0019561Y0069661*
X0019447Y0068504*
X0019561Y0067346*
X0019899Y0066233*
X0020447Y0065207*
X0020866Y0064697*
Y0060315*
X0036614*
Y006257*
X0039342*
Y0044882*
X0039456Y0043724*
X0039793Y0042611*
X0040342Y0041585*
X004108Y0040686*
X0059977Y0021788*
X0060876Y002105*
X0061902Y0020502*
X0063016Y0020164*
X0064173Y002005*
X0083465*
X0084622Y0020164*
X0085735Y0020502*
X0086761Y002105*
X0087661Y0021788*
X0099865Y0033993*
X0100603Y0034892*
X0101152Y0035918*
X0101366Y0036625*
X0159039*
X0160197Y0036739*
X016131Y0037077*
X0162336Y0037625*
X0163235Y0038363*
X0163868Y0038996*
X0171224*
Y0054565*
X017631Y005965*
X0176772Y0059459*
Y0*
X0*
Y0157059*
X0133465*
X0176772*
Y0153178*
G37*
G36*
X0089735Y010266D02*
Y0046077D01*
X0089554Y0045856*
X0089006Y004483*
X0088668Y0043717*
X0088554Y0042559*
X0088668Y0041401*
X0089006Y0040288*
X0089135Y0040047*
X0081007Y0031918*
X0066631*
X005121Y004734*
Y006063*
X0060472*
Y0063567*
X0061122*
Y0068504*
X0062598*
Y006998*
X0067535*
Y007063*
X0070472*
X0070916Y0070494*
Y0058244*
X0068976*
Y0042496*
X0084724*
Y0058244*
X0082784*
Y0073779*
X008267Y0074937*
X0082333Y007605*
X0081784Y0077076*
X0081046Y0077975*
X0076322Y00827*
X0075423Y0083438*
X0074397Y0083986*
X0073284Y0084324*
X0072126Y0084438*
X0070472*
Y0086378*
X0067535*
Y0087028*
X0062598*
Y0088504*
X0061122*
Y0093441*
X0060782*
X0060601Y0093941*
X0074534Y0107874*
X0084521*
X0089735Y010266*
G37*
%LNpcb1-2*%
%LPC*%
G36*
X0014075Y0156429D02*
Y0147146D01*
X0023358*
X002334Y0147371*
X0022942Y014903*
X0022289Y0150607*
X0021397Y0152062*
X0020289Y015336*
X0018991Y0154468*
X0017536Y015536*
X0015959Y0156013*
X00143Y0156411*
X0014075Y0156429*
G37*
G36*
X0011122D02*
X0010897Y0156411D01*
X0009238Y0156013*
X0007661Y015536*
X0006206Y0154468*
X0004908Y015336*
X0003799Y0152062*
X0002908Y0150607*
X0002255Y014903*
X0001856Y0147371*
X0001839Y0147146*
X0011122*
Y0156429*
G37*
G36*
X0023358Y0144193D02*
X0014075D01*
Y0134909*
X00143Y0134927*
X0015959Y0135326*
X0017536Y0135979*
X0018991Y013687*
X0020289Y0137979*
X0021397Y0139277*
X0022289Y0140732*
X0022942Y0142308*
X002334Y0143968*
X0023358Y0144193*
G37*
G36*
X0011122D02*
X0001839D01*
X0001856Y0143968*
X0002255Y0142308*
X0002908Y0140732*
X0003799Y0139277*
X0004908Y0137979*
X0006206Y013687*
X0007661Y0135979*
X0009238Y0135326*
X0010897Y0134927*
X0011122Y0134909*
Y0144193*
G37*
G36*
X0034465Y0121354D02*
X0031004D01*
Y0117894*
X0034465*
Y0121354*
G37*
G36*
X0028051D02*
X0024591D01*
Y0117894*
X0028051*
Y0121354*
G37*
G36*
X0055866Y0123622D02*
X0040118D01*
Y0116266*
X0037863Y0114012*
X0037402Y0114203*
Y0114291*
X0034465*
Y0114941*
X0024591*
Y0114291*
X0021654*
Y0098543*
X0037402*
Y0100483*
X0038661*
X0039819Y0100597*
X0040932Y0100935*
X0041958Y0101483*
X0042857Y0102221*
X004851Y0107874*
X0055866*
Y0123622*
G37*
G36*
X0130921Y009663D02*
X0127461D01*
Y0093169*
X0130921*
Y009663*
G37*
G36*
X0124508D02*
X0121047D01*
Y0093169*
X0124508*
Y009663*
G37*
G36*
X0033677Y0093126D02*
X0030217D01*
Y0089665*
X0033677*
Y0093126*
G37*
G36*
X0027264D02*
X0023803D01*
Y0089665*
X0027264*
Y0093126*
G37*
G36*
X0130921Y0090216D02*
X0127461D01*
Y0086756*
X0130921*
Y0090216*
G37*
G36*
X0124508D02*
X0121047D01*
Y0086756*
X0124508*
Y0090216*
G37*
G36*
X0074311Y0017498D02*
Y0015256D01*
X0076553*
X0076329Y0015797*
X0075687Y0016632*
X0074852Y0017274*
X0074311Y0017498*
G37*
G36*
X0071358D02*
X0070817Y0017274D01*
X0069982Y0016632*
X0069341Y0015797*
X0069117Y0015256*
X0071358*
Y0017498*
G37*
G36*
X0014075Y0023358D02*
Y0014075D01*
X0023358*
X002334Y00143*
X0022942Y0015959*
X0022289Y0017536*
X0021397Y0018991*
X0020289Y0020289*
X0018991Y0021397*
X0017536Y0022289*
X0015959Y0022942*
X00143Y0023341*
X0014075Y0023358*
G37*
G36*
X0011122D02*
X0010897Y0023341D01*
X0009238Y0022942*
X0007661Y0022289*
X0006206Y0021397*
X0004908Y0020289*
X0003799Y0018991*
X0002908Y0017536*
X0002255Y0015959*
X0001856Y00143*
X0001839Y0014075*
X0011122*
Y0023358*
G37*
G36*
X0076553Y0012303D02*
X0074311D01*
Y0010062*
X0074852Y0010285*
X0075687Y0010927*
X0076329Y0011762*
X0076553Y0012303*
G37*
G36*
X0071358D02*
X0069117D01*
X0069341Y0011762*
X0069982Y0010927*
X0070817Y0010285*
X0071358Y0010062*
Y0012303*
G37*
G36*
X0023358Y0011122D02*
X0014075D01*
Y0001839*
X00143Y0001856*
X0015959Y0002255*
X0017536Y0002908*
X0018991Y0003799*
X0020289Y0004908*
X0021397Y0006206*
X0022289Y0007661*
X0022942Y0009238*
X002334Y0010897*
X0023358Y0011122*
G37*
G36*
X0011122D02*
X0001839D01*
X0001856Y0010897*
X0002255Y0009238*
X0002908Y0007661*
X0003799Y0006206*
X0004908Y0004908*
X0006206Y0003799*
X0007661Y0002908*
X0009238Y0002255*
X0010897Y0001856*
X0011122Y0001839*
Y0011122*
G37*
G36*
X0067535Y0093441D02*
X0064075D01*
Y008998*
X0067535*
Y0093441*
G37*
G36*
Y0067027D02*
X0064075D01*
Y0063567*
X0067535*
Y0067027*
G37*
G36*
X0074311Y004112D02*
Y0038878D01*
X0076553*
X0076329Y0039419*
X0075687Y0040254*
X0074852Y0040896*
X0074311Y004112*
G37*
G36*
X0071358D02*
X0070817Y0040896D01*
X0069982Y0040254*
X0069341Y0039419*
X0069117Y0038878*
X0071358*
Y004112*
G37*
G36*
X0076553Y0035925D02*
X0074311D01*
Y0033683*
X0074852Y0033908*
X0075687Y0034549*
X0076329Y0035384*
X0076553Y0035925*
G37*
G36*
X0071358D02*
X0069117D01*
X0069341Y0035384*
X0069982Y0034549*
X0070817Y0033908*
X0071358Y0033683*
Y0035925*
G37*
%LNpcb1-3*%
%LPD*%
G54D10*
X0264173Y0069059D02*
X0266126D01*
G54D23*
X0095669Y0042559D02*
Y0105118D01*
Y0038189D02*
Y0042559D01*
X0159039*
X0094488D02*
X0095669D01*
X0025381Y0068504D02*
X0029055D01*
X0104331Y0120473D02*
X0116142Y0132283D01*
X014235Y005737D02*
Y011037D01*
X013535Y005037D02*
X014235Y005737D01*
X013385Y011887D02*
X014235Y011037D01*
X0159039Y0042559D02*
X016335Y004687D01*
X0038661Y0106417D02*
X0047992Y0115748D01*
X0029528Y0106417D02*
X0038661D01*
X016335Y004687D02*
Y0055083D01*
X0173228Y0064961*
Y0079921*
X0181889Y0088583*
X0187795*
X0104331Y008689D02*
X012085Y007037D01*
X0104331Y008689D02*
Y009037D01*
X0125984Y0121693D02*
X0130669D01*
X0133492Y011887*
X013385*
X010685Y005037D02*
X013535D01*
X012585Y005087D02*
Y007037D01*
X0327626Y0053559D02*
Y0054559D01*
X0276Y0138559D02*
X0276126Y0138433D01*
X015Y0127087D02*
X0170158Y0147244D01*
X0187795*
X0144488Y0132283D02*
X0149803Y0126969D01*
X0116142Y0132283D02*
X0144488D01*
X015Y008687D02*
Y0087087D01*
X0125984Y0091693D02*
X013085Y0086827D01*
Y007037D02*
Y0086827D01*
X007685Y005037D02*
Y0073779D01*
X0072126Y0078504D02*
X007685Y0073779D01*
X0062598Y0078504D02*
X0072126D01*
X002874Y0078189D02*
X0046656D01*
X0046971Y0078504*
X0052598*
X0062598*
X002874Y0068189D02*
X0029055Y0068504D01*
X015Y008687D02*
X016335D01*
X0052598Y0088504D02*
Y0094331D01*
X0073548Y011528*
X0045276Y0044882D02*
Y0068504D01*
Y0044882D02*
X0064173Y0025984D01*
X0029055Y0068504D02*
X0045276D01*
X0052598*
X0073548Y011528D02*
X0077338D01*
X0064173Y0025984D02*
X0083465D01*
X0095669Y0038189*
X0077992Y0115748D02*
X0085039D01*
X0095669Y0105118*
G54D25*
X018937Y0148819D03*
X0240551D03*
Y0089764D03*
X018937D03*
X010685Y005037D03*
X007685D03*
X0077992Y0115748D03*
X0047992D03*
X0029528Y0116417D03*
Y0106417D03*
G54D26*
X0264173Y0072126D03*
Y0112126D03*
X002874Y0068189D03*
Y0078189D03*
Y0088189D03*
X0125984Y0091693D03*
Y0121693D03*
X0104331Y0091693D03*
Y0121693D03*
X0052598Y0088504D03*
X0062598D03*
X0052598Y0078504D03*
X0062598D03*
X0052598Y0068504D03*
X0062598D03*
X0284646Y0045827D03*
Y0035827D03*
Y0025827D03*
X0296457Y007122D03*
Y0101221D03*
X015Y0127087D03*
Y0087087D03*
X016335Y004687D03*
Y008687D03*
X0393421Y0048559D03*
X0383421D03*
X0393421Y0058559D03*
X0383421D03*
X0393421Y0068559D03*
X0383421D03*
X0393421Y0078559D03*
X0383421D03*
X0393421Y0088559D03*
X0383421D03*
X0393421Y0098559D03*
X0383421D03*
X0393421Y0108559D03*
X0383421D03*
G54D27*
X0277969Y0138559D03*
X0360646D03*
X0433464Y0077953D03*
Y0098819D03*
Y0055118D03*
G54D28*
X013085Y007037D03*
X012085D03*
G54D29*
X012585Y007037D03*
G54D30*
X0219291Y0035827D03*
X0442913Y0014173D03*
Y0144488D03*
X0012598Y0012598D03*
Y0145669D03*
G54D31*
X0072835Y0037402D03*
Y001378D03*
G54D32*
X0240551Y0134567D02*
X0265354Y0109764D01*
X0240551Y0134567D02*
Y0144882D01*
X0276126Y0138433D02*
X0278496D01*
X0293701Y0099646D02*
X0297638Y0103583D01*
X0264567Y0026221D02*
X0291732D01*
X0275197Y003622D02*
X0310287D01*
X0391846Y0048559D02*
Y0068559D01*
X0381846Y0058559D02*
Y0068559D01*
X0301575Y0038583D02*
X032441Y0061417D01*
X038224Y0068559D02*
X0391846D01*
X0381846D02*
X038224D01*
Y0048559D02*
X0391846D01*
X0381846D02*
X038224D01*
X0377846Y0054559D02*
X0381846Y0058559D01*
X0363846Y0054559D02*
X0377846D01*
X0310287Y003622D02*
X0327626Y0053559D01*
X038224Y0108559D02*
X039224D01*
Y0098559D02*
Y0108559D01*
Y0088559D02*
Y0098559D01*
X038224D02*
X039224D01*
X038224Y0088559D02*
X039224D01*
X0264173Y005315D02*
X0270866Y0046457D01*
X0264173Y0069059D02*
Y0069764D01*
Y005315D02*
Y0069059D01*
X0270866Y0046457D02*
X0292126D01*
X0266126Y0069059D02*
X0295276D01*
G54D33*
X0246063Y0038189D02*
Y0089764D01*
X0283819*
X0246063Y0038189D02*
X0258032Y0026221D01*
X0264567*
X0283819Y0089764D02*
X0293701Y0099646D01*
X0361039Y0096457D02*
Y0138559D01*
X0278496Y0138433D02*
X0297638Y0119291D01*
Y0103583D02*
Y0119291D01*
G54D34*
X0216535Y0034843D03*
G54D35*
X0404724Y0102055D03*
G54D36*
X0386024Y0055138D03*
M02*