G04*
G04 #@! TF.GenerationSoftware,Altium Limited,Altium Designer,18.0.12 (696)*
G04*
G04 Layer_Color=2752767*
%FSLAX25Y25*%
%MOIN*%
G70*
G01*
G75*
%ADD38C,0.00200*%
%ADD39C,0.00267*%
D38*
X188570Y148019D02*
Y149619D01*
X190170D01*
Y148019D01*
X188570D01*
X239751D02*
Y149619D01*
X241351D01*
Y148019D01*
X239751D01*
Y88964D02*
Y90564D01*
X241351D01*
Y88964D01*
X239751D01*
X188570D02*
Y90564D01*
X190170D01*
Y88964D01*
X188570D01*
X277969Y137759D02*
X277168Y139359D01*
X278768D01*
X277969Y137759D01*
X360646D02*
X359846Y139359D01*
X361446D01*
X360646Y137759D01*
X130850Y69570D02*
X131250Y69970D01*
X131650D01*
X131250Y70370D01*
X131650Y70770D01*
X131250D01*
X130850Y71170D01*
X130450Y70770D01*
X130050D01*
X130450Y70370D01*
X130050Y69970D01*
X130450D01*
X130850Y69570D01*
X125850D02*
X126250Y69970D01*
X126650D01*
X126250Y70370D01*
X126650Y70770D01*
X126250D01*
X125850Y71170D01*
X125450Y70770D01*
X125050D01*
X125450Y70370D01*
X125050Y69970D01*
X125450D01*
X125850Y69570D01*
X120850D02*
X121250Y69970D01*
X121650D01*
X121250Y70370D01*
X121650Y70770D01*
X121250D01*
X120850Y71170D01*
X120450Y70770D01*
X120050D01*
X120450Y70370D01*
X120050Y69970D01*
X120450D01*
X120850Y69570D01*
X218491Y35027D02*
X218891Y35827D01*
X218491Y36627D01*
X219291Y36227D01*
X220091Y36627D01*
X219691Y35827D01*
X220091Y35027D01*
X219291Y35427D01*
X218491Y35027D01*
X442113Y13373D02*
X442513Y14173D01*
X442113Y14973D01*
X442913Y14573D01*
X443713Y14973D01*
X443313Y14173D01*
X443713Y13373D01*
X442913Y13773D01*
X442113Y13373D01*
Y143688D02*
X442513Y144488D01*
X442113Y145288D01*
X442913Y144888D01*
X443713Y145288D01*
X443313Y144488D01*
X443713Y143688D01*
X442913Y144088D01*
X442113Y143688D01*
X11798Y11799D02*
X12198Y12598D01*
X11798Y13398D01*
X12598Y12999D01*
X13398Y13398D01*
X12998Y12598D01*
X13398Y11799D01*
X12598Y12199D01*
X11798Y11799D01*
Y144869D02*
X12198Y145669D01*
X11798Y146469D01*
X12598Y146069D01*
X13398Y146469D01*
X12998Y145669D01*
X13398Y144869D01*
X12598Y145269D01*
X11798Y144869D01*
X72435Y37002D02*
Y36602D01*
X73235D01*
Y37002D01*
X73635D01*
Y37802D01*
X73235D01*
Y38202D01*
X72435D01*
Y37802D01*
X72035D01*
Y37002D01*
X72435D01*
Y13379D02*
Y12979D01*
X73235D01*
Y13379D01*
X73635D01*
Y14179D01*
X73235D01*
Y14580D01*
X72435D01*
Y14179D01*
X72035D01*
Y13379D01*
X72435D01*
X432664Y77153D02*
X433065D01*
X433464Y77553D01*
X433864Y77153D01*
X434265D01*
Y77553D01*
X433864Y77953D01*
X434265Y78353D01*
Y78753D01*
X433864D01*
X433464Y78353D01*
X433065Y78753D01*
X432664D01*
Y78353D01*
X433065Y77953D01*
X432664Y77553D01*
Y77153D01*
Y98019D02*
X433065D01*
X433464Y98419D01*
X433864Y98019D01*
X434265D01*
Y98419D01*
X433864Y98819D01*
X434265Y99219D01*
Y99619D01*
X433864D01*
X433464Y99219D01*
X433065Y99619D01*
X432664D01*
Y99219D01*
X433065Y98819D01*
X432664Y98419D01*
Y98019D01*
Y54318D02*
X433065D01*
X433464Y54718D01*
X433864Y54318D01*
X434265D01*
Y54718D01*
X433864Y55118D01*
X434265Y55518D01*
Y55918D01*
X433864D01*
X433464Y55518D01*
X433065Y55918D01*
X432664D01*
Y55518D01*
X433065Y55118D01*
X432664Y54718D01*
Y54318D01*
D39*
X264973Y72126D02*
G03*
X264973Y72126I-800J0D01*
G01*
Y112126D02*
G03*
X264973Y112126I-800J0D01*
G01*
X29540Y68189D02*
G03*
X29540Y68189I-800J0D01*
G01*
Y78189D02*
G03*
X29540Y78189I-800J0D01*
G01*
Y88189D02*
G03*
X29540Y88189I-800J0D01*
G01*
X126784Y91693D02*
G03*
X126784Y91693I-800J0D01*
G01*
Y121693D02*
G03*
X126784Y121693I-800J0D01*
G01*
X107650Y50370D02*
G03*
X107650Y50370I-800J0D01*
G01*
X77650D02*
G03*
X77650Y50370I-800J0D01*
G01*
X105131Y91693D02*
G03*
X105131Y91693I-800J0D01*
G01*
Y121693D02*
G03*
X105131Y121693I-800J0D01*
G01*
X53398Y88504D02*
G03*
X53398Y88504I-800J0D01*
G01*
X63398D02*
G03*
X63398Y88504I-800J0D01*
G01*
X53398Y78504D02*
G03*
X53398Y78504I-800J0D01*
G01*
X63398D02*
G03*
X63398Y78504I-800J0D01*
G01*
X53398Y68504D02*
G03*
X53398Y68504I-800J0D01*
G01*
X63398D02*
G03*
X63398Y68504I-800J0D01*
G01*
X285446Y45827D02*
G03*
X285446Y45827I-800J0D01*
G01*
Y35827D02*
G03*
X285446Y35827I-800J0D01*
G01*
Y25827D02*
G03*
X285446Y25827I-800J0D01*
G01*
X297257Y71220D02*
G03*
X297257Y71220I-800J0D01*
G01*
Y101221D02*
G03*
X297257Y101221I-800J0D01*
G01*
X150800Y127087D02*
G03*
X150800Y127087I-800J0D01*
G01*
Y87087D02*
G03*
X150800Y87087I-800J0D01*
G01*
X164150Y46870D02*
G03*
X164150Y46870I-800J0D01*
G01*
Y86870D02*
G03*
X164150Y86870I-800J0D01*
G01*
X394221Y48559D02*
G03*
X394221Y48559I-800J0D01*
G01*
X384221D02*
G03*
X384221Y48559I-800J0D01*
G01*
X394221Y58559D02*
G03*
X394221Y58559I-800J0D01*
G01*
X384221D02*
G03*
X384221Y58559I-800J0D01*
G01*
X394221Y68559D02*
G03*
X394221Y68559I-800J0D01*
G01*
X384221D02*
G03*
X384221Y68559I-800J0D01*
G01*
X394221Y78559D02*
G03*
X394221Y78559I-800J0D01*
G01*
X384221D02*
G03*
X384221Y78559I-800J0D01*
G01*
X394221Y88559D02*
G03*
X394221Y88559I-800J0D01*
G01*
X384221D02*
G03*
X384221Y88559I-800J0D01*
G01*
X394221Y98559D02*
G03*
X394221Y98559I-800J0D01*
G01*
X384221D02*
G03*
X384221Y98559I-800J0D01*
G01*
X394221Y108559D02*
G03*
X394221Y108559I-800J0D01*
G01*
X384221D02*
G03*
X384221Y108559I-800J0D01*
G01*
X78792Y115748D02*
G03*
X78792Y115748I-800J0D01*
G01*
X48792D02*
G03*
X48792Y115748I-800J0D01*
G01*
X30328Y116417D02*
G03*
X30328Y116417I-800J0D01*
G01*
Y106417D02*
G03*
X30328Y106417I-800J0D01*
G01*
M02*
