M48
;Layer_Color=9474304
;FILE_FORMAT=2:5
INCH,LZ
;TYPE=PLATED
T1F00S00C0.03000
T2F00S00C0.03543
T3F00S00C0.04724
T4F00S00C0.05906
T5F00S00C0.06890
T6F00S00C0.07874
T7F00S00C0.11811
%
T01
X0072835Y001378
Y0037402
T02
X012085Y007037
X012585
X013085
T03
X002874Y0068189
Y0078189
X0052598Y0078504
X0062598
Y0068504
X0052598
X007685Y005037
X010685
X016335Y004687
X0284646Y0045827
Y0035827
Y0025827
X0296457Y007122
X0264173Y0072126
X0383421Y0068559
Y0058559
Y0048559
X0393421
Y0058559
Y0068559
Y0078559
X0383421
Y0088559
X0393421
Y0098559
X0383421
Y0108559
X0393421
X0296457Y0101221
X0264173Y0112126
X016335Y008687
X015Y0087087
Y0127087
X0125984Y0121693
X0104331
Y0091693
X0125984
X0062598Y0088504
X0052598
X002874Y0088189
X0029528Y0106417
Y0116417
X0047992Y0115748
X0077992
T04
X018937Y0089764
X0240551
Y0148819
X018937
T05
X0360646Y0138559
X0277969
T06
X0433464Y0055118
Y0077953
Y0098819
T07
X0012598Y0012598
X0219291Y0035827
X0442913Y0014173
Y0144488
X0012598Y0145669
M30
