G04*
G04 #@! TF.GenerationSoftware,Altium Limited,Altium Designer,18.0.12 (696)*
G04*
G04 Layer_Color=65535*
%FSLAX25Y25*%
%MOIN*%
G70*
G01*
G75*
%ADD10C,0.01000*%
%ADD11C,0.00787*%
%ADD12C,0.00984*%
%ADD13C,0.00500*%
%ADD14C,0.00800*%
%ADD15C,0.00591*%
D10*
X334945Y138559D02*
G03*
X317339Y138559I-8803J-7764D01*
G01*
X301590D02*
G03*
X317339Y138559I7874J5906D01*
G01*
X177559Y156693D02*
X252362D01*
Y81890D02*
Y156693D01*
X177559Y81890D02*
X252362D01*
X177559D02*
Y156693D01*
X163386Y53185D02*
Y69685D01*
Y74803D02*
Y79835D01*
X158350Y69291D02*
X168350D01*
X164020Y69685D02*
X168350Y74016D01*
X163386Y69685D02*
X164020D01*
X163386D02*
Y69906D01*
X159055Y74016D02*
X163386Y69685D01*
X158661Y74016D02*
X159055D01*
X150394Y104724D02*
Y119693D01*
X150000Y94087D02*
Y99087D01*
X142520Y102756D02*
X144488Y104724D01*
X145000D01*
X154724D02*
X157087Y107087D01*
X150394Y104724D02*
X154724D01*
X145000D02*
X150394D01*
X155000Y100118D01*
Y99087D02*
Y100118D01*
X145000Y99331D02*
X150394Y104724D01*
X145000Y99087D02*
Y99331D01*
X270094Y146433D02*
Y154307D01*
X368520D01*
Y146433D02*
Y154307D01*
Y122811D02*
Y146433D01*
X270094Y122811D02*
X368520D01*
X270094D02*
Y130685D01*
X368520D02*
Y146433D01*
X270094Y130685D02*
Y146433D01*
X8542Y49209D02*
X7542Y50209D01*
X5543D01*
X4543Y49209D01*
Y45211D01*
X5543Y44211D01*
X7542D01*
X8542Y45211D01*
Y47210D01*
X6543D01*
X10541Y44211D02*
Y50209D01*
X14540Y44211D01*
Y50209D01*
X16539D02*
Y44211D01*
X19538D01*
X20538Y45211D01*
Y49209D01*
X19538Y50209D01*
X16539D01*
X8542Y39612D02*
X7542Y40611D01*
X5543D01*
X4543Y39612D01*
Y35613D01*
X5543Y34613D01*
X7542D01*
X8542Y35613D01*
Y37613D01*
X6543D01*
X10541Y34613D02*
Y38612D01*
X12541Y40611D01*
X14540Y38612D01*
Y34613D01*
Y37613D01*
X10541D01*
X16539Y40611D02*
X20538D01*
X18539D01*
Y34613D01*
X26536Y40611D02*
X22537D01*
Y34613D01*
X26536D01*
X22537Y37613D02*
X24537D01*
X4543Y31014D02*
Y27015D01*
X6543Y25016D01*
X8542Y27015D01*
Y31014D01*
X14540Y30014D02*
X13540Y31014D01*
X11541D01*
X10541Y30014D01*
Y26015D01*
X11541Y25016D01*
X13540D01*
X14540Y26015D01*
X20538Y30014D02*
X19538Y31014D01*
X17539D01*
X16539Y30014D01*
Y26015D01*
X17539Y25016D01*
X19538D01*
X20538Y26015D01*
X85101Y152243D02*
X84101Y153242D01*
X82102D01*
X81102Y152243D01*
Y151243D01*
X82102Y150243D01*
X84101D01*
X85101Y149243D01*
Y148244D01*
X84101Y147244D01*
X82102D01*
X81102Y148244D01*
X91099Y152243D02*
X90100Y153242D01*
X88100D01*
X87100Y152243D01*
Y148244D01*
X88100Y147244D01*
X90100D01*
X91099Y148244D01*
X93098Y147244D02*
Y153242D01*
X96097D01*
X97097Y152243D01*
Y150243D01*
X96097Y149243D01*
X93098D01*
X95098D02*
X97097Y147244D01*
X105095D02*
Y153242D01*
X107094Y151243D01*
X109093Y153242D01*
Y147244D01*
X112092D02*
X114092D01*
X115091Y148244D01*
Y150243D01*
X114092Y151243D01*
X112092D01*
X111093Y150243D01*
Y148244D01*
X112092Y147244D01*
X121089Y153242D02*
Y147244D01*
X118090D01*
X117091Y148244D01*
Y150243D01*
X118090Y151243D01*
X121089D01*
X123089D02*
Y148244D01*
X124089Y147244D01*
X127087D01*
Y151243D01*
X129087Y147244D02*
X131086D01*
X130087D01*
Y153242D01*
X129087D01*
X137084Y147244D02*
X135085D01*
X134085Y148244D01*
Y150243D01*
X135085Y151243D01*
X137084D01*
X138084Y150243D01*
Y149243D01*
X134085D01*
X302270Y22047D02*
X308268D01*
X306268D01*
X302270Y26046D01*
X305269Y23047D01*
X308268Y26046D01*
Y34043D02*
X304269D01*
X302270Y36043D01*
X304269Y38042D01*
X308268D01*
X305269D01*
Y34043D01*
X303269Y50038D02*
X302270Y49038D01*
Y47039D01*
X303269Y46040D01*
X307268D01*
X308268Y47039D01*
Y49038D01*
X307268Y50038D01*
X305269D01*
Y48039D01*
X167415Y112205D02*
X161417D01*
Y109206D01*
X162417Y108206D01*
X166416D01*
X167415Y109206D01*
Y112205D01*
X161417Y106207D02*
Y104207D01*
Y105207D01*
X167415D01*
X166416Y106207D01*
X148726Y60630D02*
X154724D01*
Y63629D01*
X153725Y64629D01*
X149726D01*
X148726Y63629D01*
Y60630D01*
X154724Y70627D02*
Y66628D01*
X150726Y70627D01*
X149726D01*
X148726Y69627D01*
Y67628D01*
X149726Y66628D01*
X277652Y103150D02*
X271654D01*
Y100151D01*
X272653Y99151D01*
X276652D01*
X277652Y100151D01*
Y103150D01*
X276652Y97151D02*
X277652Y96152D01*
Y94152D01*
X276652Y93153D01*
X275652D01*
X274653Y94152D01*
Y95152D01*
Y94152D01*
X273653Y93153D01*
X272653D01*
X271654Y94152D01*
Y96152D01*
X272653Y97151D01*
X318093Y118557D02*
X314094D01*
Y115558D01*
X316094D01*
X314094D01*
Y112559D01*
X320093D02*
X322092D01*
X321092D01*
Y118557D01*
X320093Y117557D01*
X447638Y94882D02*
X441640D01*
Y97881D01*
X442639Y98881D01*
X444639D01*
X445638Y97881D01*
Y94882D01*
X447638Y100880D02*
Y102879D01*
Y101880D01*
X441640D01*
X442639Y100880D01*
X447638Y50000D02*
X441640D01*
Y52999D01*
X442639Y53999D01*
X444639D01*
X445638Y52999D01*
Y50000D01*
X447638Y59997D02*
Y55998D01*
X443639Y59997D01*
X442639D01*
X441640Y58997D01*
Y56998D01*
X442639Y55998D01*
X372921Y46059D02*
X366923D01*
Y49058D01*
X367923Y50058D01*
X369922D01*
X370922Y49058D01*
Y46059D01*
X367923Y52057D02*
X366923Y53057D01*
Y55056D01*
X367923Y56056D01*
X368922D01*
X369922Y55056D01*
Y54057D01*
Y55056D01*
X370922Y56056D01*
X371921D01*
X372921Y55056D01*
Y53057D01*
X371921Y52057D01*
X48248Y101654D02*
Y107652D01*
X51248D01*
X52247Y106652D01*
Y104653D01*
X51248Y103653D01*
X48248D01*
X57245Y101654D02*
Y107652D01*
X54246Y104653D01*
X58245D01*
X120649Y80670D02*
Y84668D01*
X119649Y85668D01*
X117650D01*
X116650Y84668D01*
Y80670D01*
X117650Y79670D01*
X119649D01*
X118650Y81669D02*
X120649Y79670D01*
X119649D02*
X120649Y80670D01*
X122649Y79670D02*
X124648D01*
X123648D01*
Y85668D01*
X122649Y84668D01*
X280413Y68341D02*
Y72340D01*
X279413Y73340D01*
X277414D01*
X276414Y72340D01*
Y68341D01*
X277414Y67342D01*
X279413D01*
X278414Y69341D02*
X280413Y67342D01*
X279413D02*
X280413Y68341D01*
X286411Y67342D02*
X282412D01*
X286411Y71340D01*
Y72340D01*
X285411Y73340D01*
X283412D01*
X282412Y72340D01*
X74650Y56770D02*
Y62768D01*
X77649D01*
X78649Y61769D01*
Y59769D01*
X77649Y58769D01*
X74650D01*
X76650D02*
X78649Y56770D01*
X80648D02*
X82648D01*
X81648D01*
Y62768D01*
X80648Y61769D01*
X101981Y127843D02*
Y133841D01*
X104980D01*
X105979Y132841D01*
Y130842D01*
X104980Y129842D01*
X101981D01*
X103980D02*
X105979Y127843D01*
X111978D02*
X107979D01*
X111978Y131842D01*
Y132841D01*
X110978Y133841D01*
X108978D01*
X107979Y132841D01*
X123634Y127843D02*
Y133841D01*
X126633D01*
X127633Y132841D01*
Y130842D01*
X126633Y129842D01*
X123634D01*
X125634D02*
X127633Y127843D01*
X129632Y132841D02*
X130632Y133841D01*
X132631D01*
X133631Y132841D01*
Y131842D01*
X132631Y130842D01*
X131632D01*
X132631D01*
X133631Y129842D01*
Y128843D01*
X132631Y127843D01*
X130632D01*
X129632Y128843D01*
X294107Y107370D02*
Y113368D01*
X297106D01*
X298105Y112369D01*
Y110370D01*
X297106Y109370D01*
X294107D01*
X296106D02*
X298105Y107370D01*
X303104D02*
Y113368D01*
X300105Y110370D01*
X304103D01*
X211024Y79620D02*
X215022D01*
X213023D01*
Y73622D01*
X217022D02*
X219021D01*
X218021D01*
Y79620D01*
X217022Y78620D01*
X5512Y94095D02*
Y100093D01*
X8511D01*
X9510Y99093D01*
Y97093D01*
X8511Y96094D01*
X5512D01*
X15509Y100093D02*
X11510D01*
Y97093D01*
X13509Y98093D01*
X14509D01*
X15509Y97093D01*
Y95094D01*
X14509Y94095D01*
X12510D01*
X11510Y95094D01*
X25197Y128833D02*
Y122835D01*
X28196D01*
X29195Y123834D01*
Y127833D01*
X28196Y128833D01*
X25197D01*
X34194Y122835D02*
Y128833D01*
X31195Y125834D01*
X35194D01*
X45831Y122147D02*
Y128145D01*
X48830D01*
X49829Y127146D01*
Y125146D01*
X48830Y124147D01*
X45831D01*
X47830D02*
X49829Y122147D01*
X55827Y128145D02*
X51829D01*
Y125146D01*
X53828Y126146D01*
X54828D01*
X55827Y125146D01*
Y123147D01*
X54828Y122147D01*
X52828D01*
X51829Y123147D01*
D11*
X118055Y76276D02*
G03*
X133646Y76276I7795J-5906D01*
G01*
X264173Y76126D02*
Y79126D01*
Y105126D02*
Y108126D01*
X259173Y84126D02*
X269173D01*
Y79126D02*
Y105126D01*
X259173Y79126D02*
X269173D01*
X259173D02*
Y105126D01*
X269173D01*
X5407Y66523D02*
X18740D01*
X3740Y68189D02*
X5407Y66523D01*
X3740Y68189D02*
X5407Y69856D01*
X18740D01*
X5407Y76522D02*
X18740D01*
X3740Y78189D02*
X5407Y76522D01*
X3740Y78189D02*
X5407Y79856D01*
X18740D01*
X5407Y86523D02*
X18740D01*
X3740Y88189D02*
X5407Y86523D01*
X3740Y88189D02*
X5407Y89856D01*
X18740D01*
X23740Y63189D02*
Y93189D01*
X18740D02*
X23740D01*
X18740Y63189D02*
X23740D01*
X18740D02*
Y93189D01*
X125984Y116693D02*
Y117593D01*
Y95793D02*
Y96693D01*
Y116693D02*
X128984D01*
Y96693D02*
Y116693D01*
X122984Y96693D02*
X128984D01*
X122984D02*
Y116693D01*
X125984D01*
X118055Y76276D02*
X133646D01*
X80950Y50370D02*
X81850D01*
X101850D02*
X102750D01*
X81850D02*
Y53370D01*
X101850D01*
Y47370D02*
Y53370D01*
X81850Y47370D02*
X101850D01*
X81850D02*
Y50370D01*
X104331Y116693D02*
Y117593D01*
Y95793D02*
Y96693D01*
Y116693D02*
X107331D01*
Y96693D02*
Y116693D01*
X101331Y96693D02*
X107331D01*
X101331D02*
Y116693D01*
X104331D01*
X67598Y74337D02*
Y93504D01*
Y63504D02*
Y93504D01*
X47598Y63504D02*
Y93504D01*
Y63504D02*
X67598D01*
X47598Y93504D02*
X67598D01*
X275787Y56890D02*
X294685D01*
X275787Y14764D02*
X294685D01*
Y56890D01*
X275787Y14764D02*
Y56890D01*
X277756Y14764D02*
Y56890D01*
X296457Y96220D02*
Y97120D01*
Y75321D02*
Y76221D01*
Y96220D02*
X299457D01*
Y76221D02*
Y96220D01*
X293457Y76221D02*
X299457D01*
X293457D02*
Y96220D01*
X296457D01*
X145000Y120087D02*
X155000D01*
X145000Y94087D02*
Y120087D01*
Y94087D02*
X155000D01*
Y120087D01*
X145000Y99087D02*
X155000D01*
X150000Y120087D02*
Y123087D01*
Y91087D02*
Y94087D01*
X158350Y53870D02*
X168350D01*
Y79870D01*
X158350D02*
X168350D01*
X158350Y53870D02*
Y79870D01*
Y74870D02*
X168350D01*
X163350Y50870D02*
Y53870D01*
Y79870D02*
Y82870D01*
X378421Y43559D02*
Y113559D01*
X398421Y43559D02*
Y113559D01*
X378421D02*
X398421D01*
X378421Y43559D02*
X398421D01*
X52092Y115748D02*
X52992D01*
X72992D02*
X73892D01*
X52992D02*
Y118748D01*
X72992D01*
Y112748D02*
Y118748D01*
X52992Y112748D02*
X72992D01*
X52992D02*
Y115748D01*
X427953Y104331D02*
X438976D01*
Y93307D02*
Y104331D01*
X427953Y93307D02*
X438976D01*
X427953D02*
Y104331D01*
Y60630D02*
X438976D01*
Y49606D02*
Y60630D01*
X427953Y49606D02*
X438976D01*
X427953D02*
Y60630D01*
D12*
X137484Y75685D02*
G03*
X137484Y75685I-492J0D01*
G01*
X433957Y106890D02*
G03*
X433957Y106890I-492J0D01*
G01*
Y63189D02*
G03*
X433957Y63189I-492J0D01*
G01*
D13*
X7874Y117126D02*
G03*
X7874Y105709I0J-5709D01*
G01*
X7874Y117126D02*
X12205D01*
X7874Y105709D02*
X12205D01*
Y120079D02*
X37402D01*
X12205Y102756D02*
Y120079D01*
Y102756D02*
X37402D01*
Y120079D01*
D14*
X64598Y60504D02*
Y62170D01*
Y61337D01*
X59600D01*
X60433Y60504D01*
X59600Y97836D02*
Y94504D01*
X62099D01*
X61266Y96170D01*
Y97003D01*
X62099Y97836D01*
X63765D01*
X64598Y97003D01*
Y95337D01*
X63765Y94504D01*
X381421Y40559D02*
Y38893D01*
Y39726D01*
X386420D01*
X385587Y40559D01*
Y36394D02*
X386420Y35561D01*
Y33895D01*
X385587Y33062D01*
X384753D01*
X383920Y33895D01*
Y34728D01*
Y33895D01*
X383087Y33062D01*
X382254D01*
X381421Y33895D01*
Y35561D01*
X382254Y36394D01*
X391421Y40559D02*
Y38893D01*
Y39726D01*
X396420D01*
X395586Y40559D01*
X391421Y33895D02*
X396420D01*
X393920Y36394D01*
Y33062D01*
X381421Y120559D02*
Y118893D01*
Y119726D01*
X386420D01*
X385587Y120559D01*
X391421Y117227D02*
Y120559D01*
X394753Y117227D01*
X395586D01*
X396420Y118060D01*
Y119726D01*
X395586Y120559D01*
X49600Y97836D02*
X50433Y96170D01*
X52099Y94504D01*
X53765D01*
X54598Y95337D01*
Y97003D01*
X53765Y97836D01*
X52932D01*
X52099Y97003D01*
Y94504D01*
D15*
X283226Y59827D02*
X282242Y60811D01*
Y62779D01*
X283226Y63762D01*
X284210D01*
X285194Y62779D01*
Y61795D01*
Y62779D01*
X286178Y63762D01*
X287162D01*
X288146Y62779D01*
Y60811D01*
X287162Y59827D01*
X289146Y9827D02*
Y11795D01*
Y10811D01*
X283242D01*
X284226Y9827D01*
M02*
