G04*
G04 #@! TF.GenerationSoftware,Altium Limited,Altium Designer,18.0.12 (696)*
G04*
G04 Layer_Color=8388736*
%FSLAX25Y25*%
%MOIN*%
G70*
G01*
G75*
%ADD16R,0.08674X0.08674*%
%ADD17R,0.08674X0.08674*%
%ADD18R,0.12611X0.12611*%
%ADD19O,0.04737X0.08674*%
%ADD20O,0.04737X0.08674*%
%ADD21C,0.20485*%
%ADD22C,0.06800*%
D16*
X189370Y148819D02*
D03*
X240551D02*
D03*
Y89764D02*
D03*
X189370D02*
D03*
X106850Y50370D02*
D03*
X76850D02*
D03*
X77992Y115748D02*
D03*
X47992D02*
D03*
X29528Y116417D02*
D03*
Y106417D02*
D03*
D17*
X264173Y72126D02*
D03*
Y112126D02*
D03*
X28740Y68189D02*
D03*
Y78189D02*
D03*
Y88189D02*
D03*
X125984Y91693D02*
D03*
Y121693D02*
D03*
X104331Y91693D02*
D03*
Y121693D02*
D03*
X52598Y88504D02*
D03*
X62598D02*
D03*
X52598Y78504D02*
D03*
X62598D02*
D03*
X52598Y68504D02*
D03*
X62598D02*
D03*
X284646Y45827D02*
D03*
Y35827D02*
D03*
Y25827D02*
D03*
X296457Y71220D02*
D03*
Y101221D02*
D03*
X150000Y127087D02*
D03*
Y87087D02*
D03*
X163350Y46870D02*
D03*
Y86870D02*
D03*
X393421Y48559D02*
D03*
X383421D02*
D03*
X393421Y58559D02*
D03*
X383421D02*
D03*
X393421Y68559D02*
D03*
X383421D02*
D03*
X393421Y78559D02*
D03*
X383421D02*
D03*
X393421Y88559D02*
D03*
X383421D02*
D03*
X393421Y98559D02*
D03*
X383421D02*
D03*
X393421Y108559D02*
D03*
X383421D02*
D03*
D18*
X277969Y138559D02*
D03*
X360646D02*
D03*
X433464Y77953D02*
D03*
Y98819D02*
D03*
Y55118D02*
D03*
D19*
X130850Y70370D02*
D03*
X120850D02*
D03*
D20*
X125850D02*
D03*
D21*
X219291Y35827D02*
D03*
X442913Y14173D02*
D03*
Y144488D02*
D03*
X12598Y12598D02*
D03*
Y145669D02*
D03*
D22*
X72835Y37402D02*
D03*
Y13780D02*
D03*
M02*
